<svg width="760.10223" height="794.1530200000001" xmlns="http://www.w3.org/2000/svg">

 <g>
  <title>background</title>
  <rect fill="none" id="canvas_background" height="402" width="582" y="-1" x="-1"/>
 </g>
 <g>
  <title>Layer 1</title>
  <rect fill="#daf0fd" stroke-width="0.6" stroke-linecap="round" stroke-linejoin="round" stroke-miterlimit="4" id="rect8775" y="0" x="-0.000017" height="794.15302" width="760.10223"/>
  <g id="layer5">
   <g display="inline" id="g17468">
    <g id="g14410">
     <rect fill="white" fill-opacity="0.541284" stroke="black" stroke-miterlimit="4" stroke-dashoffset="0" id="rect10846" y="686.388526" x="954.742327" height="4.585817" width="44.832802"/>
     <rect fill="black" fill-opacity="0.541284" stroke="black" stroke-miterlimit="4" stroke-dashoffset="0" id="rect11738" y="686.388646" x="908.920737" height="4.585817" width="44.832802"/>
     <path fill="none" fill-rule="evenodd" stroke="black" stroke-width="1px" id="path14395" d="m908.801837,685.993146l0.07907,8.61878"/>
     <path fill="none" fill-rule="evenodd" stroke="black" stroke-width="1px" id="path14397" d="m954.584137,685.993146l0,6.80014"/>
     <path fill="none" fill-rule="evenodd" stroke="black" stroke-width="1px" id="path14399" d="m999.654807,686.151286l0.15814,8.61878"/>
     <text font-size="20px" font-style="normal" font-weight="normal" text-anchor="start" fill="black" stroke-width="1px" font-family="Arial" xml:space="preserve" id="text14401" y="680.537206" x="943.276937">
      <tspan id="tspan14403" y="680.537206" x="943.276937">km</tspan>
     </text>
     <text font-size="16px" font-style="normal" font-weight="normal" text-anchor="start" fill="black" stroke-width="1px" font-family="Arial" xml:space="preserve" id="text14405" y="711.216856" x="905.955277">
      <tspan id="tspan14407" y="711.216856" x="905.955277">0</tspan>
     </text>
    </g>
    <text font-size="16px" font-style="normal" font-weight="normal" text-anchor="start" fill="black" stroke-width="1px" font-family="Arial" xml:space="preserve" id="text17464" y="709.846015" x="985.438149">
     <tspan id="tspan17466" y="709.846015" x="985.438149">200</tspan>
    </text>
   </g>
  </g>
  <g fill="#fcf5e3" stroke="#787878" stroke-width="0.6" stroke-linejoin="bevel" stroke-miterlimit="4" id="g2458" transform="matrix(1.385313,0,0,1.385313,140.6408,419.5775) ">
   <path fill="#fcf5e3" stroke="#787878" stroke-width="0.6" stroke-linecap="round" stroke-linejoin="bevel" stroke-miterlimit="4" id="path2460" d="m173.24649,125.92189l-5.1,-2.25l0,7l-1.15,2l-2.6,0l-3.75,3l0,1.75l-6.25,0l-3.15,-2.6l0,-2.4l-1.6,-2.35l4.5,-5.4l0,-5l-2.9,0l-1.5,1l-3.5,0l-11.1,1.25l1.85,1.5l0,2l1.5,0l-2.6,3.25l0,1.4l1.75,1.25l-1.65,1.85l-1.25,0l0,3l7.65,5.9l2.85,1l0,1.25l-1.6,0l-0.15,1.1l1.5,0l0,2.9l8.25,3.85l2.65,0l0,1.5l2.1,0l4.65,-5.75l5.75,-12l4.25,-1.75l0,-3l-1.5,-1l2.1,-1.75l0,-2.5"/>
  </g>
  <g fill="#fcf5e3" stroke="#787878" stroke-width="0.6" stroke-linejoin="bevel" stroke-miterlimit="4" id="g3365" transform="matrix(1.385313,0,0,1.385313,-101.1435,520.6108) ">
   <path fill="#fcf5e3" stroke="#787878" stroke-width="0.6" stroke-linecap="round" stroke-linejoin="bevel" stroke-miterlimit="4" id="path3367" d="m172.04649,122.52189l0,6.4l-1.5,0l-5.25,4.85l0,1l1.25,2.65l0,3.1l-3.4,4.4l0,1.75l1.25,0l0,4.85l3.15,2.65l0,2l-2.65,1.5l-2.75,0l-1.6,-3.15l-7.4,-1.5l-1.5,-3.6l-1.35,-2l1.6,-1.15l1.5,1.65l1.5,0l2.15,-3.9l0,-5.35l-3.65,-3.25l0,-2.65l1.25,-1l0,-8.4l1.3,-1.6l2.6,0l2.25,-1.85l2.1,2.5l2.15,0l1.35,-1.5l2.25,0l3.4,1.6"/>
   <path fill="#fcf5e3" stroke="#787878" stroke-width="0.6" stroke-linecap="round" stroke-linejoin="bevel" stroke-miterlimit="4" id="path3369" d="m155.14649,115.67189l0,6.1l-0.9,0.75l-2.7,-1.1l0,-2.25l2.6,-3.5l1,0m-12.7,13.85l-0.75,1l1.35,2l2.75,0l-1.75,-3l-1.6,0m-1.25,4.5l-2.75,4.4l-2.5,0.5l0,-1.5l3.25,-3.4l2,0"/>
  </g>
  <g fill="#fcf5e3" stroke="#787878" stroke-width="0.6" stroke-linejoin="bevel" stroke-miterlimit="4" id="g2700" transform="matrix(1.385313,0,0,1.385313,-50.44101,503.0174) ">
   <path fill="#fcf5e3" stroke="#787878" stroke-width="0.6" stroke-linecap="round" stroke-linejoin="bevel" stroke-miterlimit="4" id="path2702" d="m156.84649,111.22189l2.5,0l0,-1l2.85,0l0,3.4l5.65,0l0,-2l4.75,0l0,3.5l-4.65,4.1l-1.6,0l0,3l1,0l0,2.25l-1.55,0l-8.5,19.9l0,4.6l1,0l-1.25,5.65c-2.2,2.5 -3.8,5.58333 -4.8,9.25l-0.05,0.1l-3.15,-1.25l-1.35,-2.35l1.75,-4.4l-4.75,-2l-1.9,-5l-1.5,0l-1.85,-1.1l0,-2l1.25,0l0,-2.4l-5.25,-5.05l0,-3.2l7.75,0l2,-1.6l2,0l0,-2.25l-1.25,-1.4l1.85,-1.75l0,-1.85l-2.5,-1.4l0,-4.25l1.5,-1.6l1.25,0l7.3,-9.75l1.5,1.85"/>
  </g>
  <g fill="#fcf5e3" stroke="#787878" stroke-width="0.6" stroke-linejoin="bevel" stroke-miterlimit="4" id="g3590" transform="matrix(1.385313,0,0,1.385313,-78.80598,473.8793) ">
   <path fill="#fcf5e3" stroke="#787878" stroke-width="0.6" stroke-linecap="round" stroke-linejoin="bevel" stroke-miterlimit="4" id="path3592" d="m168.14649,117.07189l5.25,5.4l2.4,8l-7.3,9.75l-1.25,0l-1.5,1.6l0,4.25l2.5,1.4l0,1.85l-1.85,1.75l1.25,1.4l0,2.25l-2,0l-2,1.6l-7.75,0l-3.4,-1.6l-2.25,0l-1.35,1.5l-2.15,0l-2.1,-2.5l0,-2.25l3.35,-2.25l0,-1.75l2.9,-3.25l0,-3l3,-2.4l0,-1.25l-4.75,0l0,-1.25l4.1,-2.5l0,-3.25l-2.1,-1.25l0,-1.6l-2.9,-2.5l3.4,-1.4l3.1,-4.6l2.9,0l5.25,2.85l4,0l0,-3.75l1.25,-1.25"/>
   <path fill="#fcf5e3" stroke="#787878" stroke-width="0.6" stroke-linecap="round" stroke-linejoin="bevel" stroke-miterlimit="4" id="path3594" d="m146.99649,140.82189l0,-2.5l-2,2.15l-1.5,0l-2.5,1.95l0,2.55l1.4,0.75l3.1,0l2.5,-3.65l-1,-1.25m-7.1,6.65l0.35,-8l-3.75,0l-3.85,5l0,2.25l2.35,1.6l-2.75,0l0,2.4l1.5,2.1l4.25,-5.35l1.9,0"/>
  </g>
  <g fill="#fcf5e3" stroke="#787878" stroke-width="0.6" stroke-linejoin="bevel" stroke-miterlimit="4" id="g6851" transform="matrix(1.385313,0,0,1.385313,-77.63956,551.7908) ">
   <path fill="#fcf5e3" stroke="#787878" stroke-width="0.6" stroke-linecap="round" stroke-linejoin="bevel" stroke-miterlimit="4" id="path6853" d="m154.99649,103.27189l5.25,5.05l0,2.4l-1.25,0l0,2l1.85,1.1l1.5,0l1.9,5l4.75,2l-1.75,4.4l-3,0l-1.65,2.5l0,1.5l1.4,0l1.5,3l0,1.25l-4.75,0l0,1.75l-6.25,4l-2.4,0l-1.1,1.6l-1.5,-2.1l3.75,-4l0,-1.65l1,0l0,-6.25l-1,-0.25l-0.75,-1.25l0,-3.35l-2.5,0l0,-2.9l2,0l1.25,2.15l1.5,0l1.35,-3.15l0,-1.35l-2.85,-1.75l-3.75,0l-1.25,-2.65l0,-1l5.25,-4.85l1.5,0l0,-3.2"/>
   <path fill="#fcf5e3" stroke="#787878" stroke-width="0.6" stroke-linecap="round" stroke-linejoin="bevel" stroke-miterlimit="4" id="path6855" d="m157.49649,154.07189l2.5,-3l0,-2l2.4,0l0,4.65l-4,7.5l0,4.1l-1.4,1.15l-2.35,0.25l0,-2l-1,-1.15l0,-1.1l3.85,-3.9l0,-4.5m-9.6,10.75l-2.5,-2.35l-2.5,0l-3.9,2.1l0,2.75l2,2.65l4.4,0.1l2.5,-2.75l0,-2.5"/>
  </g>
  <g fill="#fcf5e3" stroke="#787878" stroke-width="0.57" stroke-linejoin="bevel" stroke-miterlimit="4" id="g7742" transform="matrix(1.385313,0,0,1.385313,-78.60098,446.7286) ">
   <path fill="#fcf5e3" stroke="#787878" stroke-width="0.6" stroke-linecap="round" stroke-linejoin="bevel" stroke-miterlimit="4" id="path7744" d="m156.19649,128.67189l6.5,4.25l0,8.85l-5.25,-2.85l-2.9,0l-3.1,4.6l-3.4,1.4l0,-4.75l-2.5,-3.3c3,-2.43333 5.91667,-5.16667 8.75,-8.2l1.9,0"/>
  </g>
  <g fill="#fcf5e3" stroke="#787878" stroke-width="0.6" stroke-linejoin="bevel" stroke-miterlimit="4" id="g1667" transform="matrix(1.385313,0,0,1.385313,283.524,285.1941) ">
   <path fill="#fcf5e3" stroke="#787878" stroke-width="0.6" stroke-linecap="round" stroke-linejoin="bevel" stroke-miterlimit="4" id="path1669" d="m160.24649,120.72189l3.15,1l0,3.15l1.6,1l-1.5,1.1l0,6.15l2.9,1l0,1.5l-2.4,4.6l0,2.65l2.5,2.5l4.25,0l2.65,1.75l-2.4,1l-3.5,0l-10,-3.05l-3.1,3.05l0,2.6l-2.25,0l-4,3.15l-2.15,0l-1.15,3l-2.5,-1.9l0,-2l-1,-1l0,-5.75l1.4,-1l0,-1.85l-1.65,-2.5l-4.6,0l-1.9,-2.25l0,-2.5l1.4,-2l2.75,-2.25l0,-1.65l2.6,0l2.15,-1.25l0,-1.35l4.25,0l1.5,-2.9l2.25,0l0,-5.25l4.35,-3l3.15,4.25l1.25,0"/>
  </g>
  <g fill="#fcf5e3" stroke="#787878" stroke-width="0.6" stroke-linejoin="bevel" stroke-miterlimit="4" id="g1627" transform="matrix(1.385313,0,0,1.385313,-105.0348,449.8476) ">
   <path fill="#fcf5e3" stroke="#787878" stroke-width="0.6" stroke-linecap="round" stroke-linejoin="bevel" stroke-miterlimit="4" id="path1629" d="m-25.9,-8.65l-2.25,-0.25l0,-1.6l2.25,0l0,1.85m-2.65,1.15l0,1.6l-1.75,-1.6l1.75,0"/>
   <path fill="#fcf5e3" stroke="#787878" stroke-width="0.6" stroke-linecap="round" stroke-linejoin="bevel" stroke-miterlimit="4" id="path1631" d="m-30.05,-1l0,2.75l-2,0l1,2l0,2.5l1,2l1.4,-2.4l0,-3.35l2.35,0l0,-2.5l-2.1,1.5l0,-2.65l1.25,0l0,-4.1l-1.5,2.75l-1.4,1.5"/>
   <path fill="#fcf5e3" stroke="#787878" stroke-width="0.6" stroke-linecap="round" stroke-linejoin="bevel" stroke-miterlimit="4" id="path1633" d="m-34.9,4.6l0,1.9l-2.15,-1.15l0,1.9l1.65,1.75l1.6,-2.15l0,-2.25l-1.1,0m-7,4.25l-1.9,-1.75l0,3.4l1.15,1.5l-1.75,2l2.85,0l1.15,1.5l0,-2.5l2.25,0l0,1.25l2.25,0l0,-1.75l-1.75,-1.75l0,-2l-1.4,-1.4l-1,1.5l-1.85,0"/>
   <path fill="#fcf5e3" stroke="#787878" stroke-width="0.6" stroke-linejoin="bevel" stroke-miterlimit="4" id="path1635"/>
   <path fill="#fcf5e3" stroke="#787878" stroke-width="0.6" stroke-linecap="round" stroke-linejoin="bevel" stroke-miterlimit="4" id="path1637" d="m159.59649,119.92189l-3,1.35l0,1.5l-1.9,0l0,-2l-2.1,-2.15l-1.9,0l-1.6,3.15l-2.25,0l0,1.75l2.6,0l0,2.75l-2.5,0l-1.35,-1.5l-2.65,0l-1.6,-1l-1,-1.15l0,1.9l-2.4,0l-3.6,6.5l2.35,0l2.65,-2.4l0,-1.5l2.5,-1.5l0,3l-1.5,1.75l4.1,2.75l2.15,0l0,2.75l0.05,0.05l4.45,1.6l1,1.1l0,4l1.35,1.4l0,1.85l-2.1,0l0,-1.6l-3.75,0l0,-5.5l-1.4,0l0,-1.65l-2.5,0l0,1.4l-1.75,1.35l1.25,1.5l0,3.25l1.25,1.4l1.9,0l1.6,3l-2.75,5.25l2,0l4.75,-5.65l4.5,0l0,-1l3,0l0,2.75l-2.75,1.9l0,1.1l2.15,1.4l2.1,0l0,-1.25l1.75,0l2.9,-3l0,-2.4l-2.25,-3.25l-2.75,0l-1.25,1l-1.65,0l-1,-1.25l2.65,-1.75l1.1,0l0,-1.6l-1.85,-3.5l0,-2.5l2.25,-1.15l1.35,-1.85l2.5,2.2c3,-2.43333 5.91667,-5.16667 8.75,-8.2l-5.75,0l-8.1,-4.25l0,-2.1"/>
  </g>
  <g fill="#fcf5e3" stroke="#787878" stroke-width="0.6" stroke-linejoin="bevel" stroke-miterlimit="4" id="g3400" transform="translate(213.33334350585938,189.33334350585938) matrix(1.385313,0,0,1.385313,-80.98994,424.3766) ">
   <path fill="#fcf5e3" stroke="#787878" stroke-width="0.6" stroke-linecap="round" stroke-linejoin="bevel" stroke-miterlimit="4" id="path3402" d="m0.65,-10.15l-2,2.6l0,2.15l-2.25,2l0,1.75l-1.25,1.25l-2.65,0l-1.25,-1.9l-1.25,0l-1.85,2l0,4.15l8.1,4.25l7.65,0l6.5,4.25l0,-3.9l1.4,-1.35l-4.55,-4.25l0,-2.5l4.25,-7.4l0.4,-2.6l-2,-2.65l-3.5,0l-1.75,2.15l-4,0"/>
  </g>
  <g fill="#fcf5e3" stroke="#787878" stroke-width="0.6" stroke-linejoin="bevel" stroke-miterlimit="4" id="g5161" transform="translate(213.33334350585938,189.33334350585938) matrix(1.385313,0,0,1.385313,-56.56617,424.3364) ">
   <path fill="#fcf5e3" stroke="#787878" stroke-width="0.6" stroke-linecap="round" stroke-linejoin="bevel" stroke-miterlimit="4" id="path5163" d="m-1.1,-3l1.5,2.65c3.43333,0.5 6.35,1.7 8.75,3.6l0,3.65l1.25,0l0,2.85l-2.25,2.25l-2.15,0l-8.5,-2l-7.9,-7.1l0,-2.5l4.25,-7.4l0.4,-2.6l4.65,-2.4l-1,3l1,6"/>
  </g>
  <g fill="#fcf5e3" stroke="#787878" stroke-width="0.6" stroke-linejoin="bevel" stroke-miterlimit="4" id="g6049" transform="translate(213.33334350585938,189.33334350585938) matrix(1.385313,0,0,1.385313,-41.40669,446.7328) ">
   <path fill="#fcf5e3" stroke="#787878" stroke-width="0.6" stroke-linecap="round" stroke-linejoin="bevel" stroke-miterlimit="4" id="path6051" d="m9.3,-13.85l0,5.75l-3.5,3.1l-3,0l-1.25,1.65l1.85,2.35l5.4,0l0,1.15l5,0l-2.65,3.25l2.5,1.75l0,1.35l3.15,0l0,1.25l-2.4,0l0,3.4l3.75,0l-3.35,4.6l-2.75,1.65l0,-1.75l-4.75,0l0,2l-5.65,0l0,-3.4l-2.85,0l0,1l-2.5,0l-1.5,-1.85l-2.4,-8l-5.25,-5.4l-1.25,1.25l0,3.75l-4,0l0,-12.75l1.4,-1.35l3.35,2.85l8.5,2l2.15,0l2.25,-2.25l0,-2.85l-1.25,0l0,-3.65l1.5,0l2.5,-3.5l2.1,-1.1l1.9,0l3,3.75"/>
  </g>
  <g fill="#fcf5e3" stroke="#787878" stroke-width="0.6" stroke-linejoin="bevel" stroke-miterlimit="4" id="g9577" transform="translate(213.33334350585938,189.33334350585938) matrix(1.385313,0,0,1.385313,-113.9473,412.5722) ">
   <path fill="#fcf5e3" stroke="#787878" stroke-width="0.6" stroke-linecap="round" stroke-linejoin="bevel" stroke-miterlimit="4" id="path9579" d="m0.15,-3.2l-2.25,1.5l0,3l2,1.9l2.25,-2l0,-2.25l-2,-2.15"/>
  </g>
  <g fill="#fcf5e3" stroke="#787878" stroke-width="0.6" stroke-linejoin="bevel" stroke-miterlimit="4" id="g10465" transform="translate(213.33334350585938,189.33334350585938) matrix(1.385313,0,0,1.385313,-127.8403,380.6488) ">
   <path fill="#fcf5e3" stroke="#787878" stroke-width="0.6" stroke-linecap="round" stroke-linejoin="bevel" stroke-miterlimit="4" id="path10467" d="m2.6,-10.6l-2.9,1.4l0,2.85l0.4,2l-1.9,0l0,4l-0.45,0.75l3.45,2.25l0,-5.1l1.75,-2l1.5,0l0,-3.5l1.25,-1.4l0,-1.25l-3.1,0"/>
   <path fill="#fcf5e3" stroke="#787878" stroke-width="0.6" stroke-linecap="round" stroke-linejoin="bevel" stroke-miterlimit="4" id="path10469" d="m-5.65,5.65l0,4l1.85,1l4.15,-6.85l-4.65,-1.9l-1.35,3.75"/>
  </g>
  <g fill="#fcf5e3" stroke="#787878" stroke-width="0.6" stroke-linejoin="bevel" stroke-miterlimit="4" id="g11356" transform="translate(213.33334350585938,189.33334350585938) matrix(1.385313,0,0,1.385313,44.71821,433.5016) ">
   <path fill="#fcf5e3" stroke="#787878" stroke-width="0.6" stroke-linecap="round" stroke-linejoin="bevel" stroke-miterlimit="4" id="path11358" d="m4.1,1.15l-9.5,6.1l-2.9,7.75l-4.1,4.75l-2.15,0l0,5.25l-1.85,1.4l0,1.25l2,1l0,2l-1.9,0l-1.5,-2.25l-5.1,0l-3.15,-1.25l0,-2.4l2,0l0,-1.85l-1,-2.4l-1.5,-6.75l3,0l5.15,-4.25l0,-6.1l4.5,0c2.1,-5.53333 5.18333,-9.75 9.25,-12.65l4.6,0l2.25,1.15l1.65,-2.25l5.95,-0.25l6,2.25l1.25,-1l2.15,0l0,4.25l3.85,2l0,2.75l1.25,2.25l2.25,0c-2.23333,1.93333 -3.55,5.48333 -3.95,10.65l-9.9,-10.15l-8.6,-1.25"/>
  </g>
  <g fill="#fcf5e3" stroke="#787878" stroke-width="0.6" stroke-linejoin="bevel" stroke-miterlimit="4" id="g12244" transform="translate(213.33334350585938,189.33334350585938) matrix(1.385313,0,0,1.385313,77.05833,419.1748) ">
   <path fill="#fcf5e3" stroke="#787878" stroke-width="0.6" stroke-linecap="round" stroke-linejoin="bevel" stroke-miterlimit="4" id="path12246" d="m8.65,-11.1l-8.65,0l-5,3.6l-2.1,-2l-7.4,3.05l-1.6,1.6l0,4.75l2.6,0l6,2.25l1.25,-1l2.15,0l0,4.25l3.85,2l0,2.75l1.25,2.25l2.25,0c2.13333,-3 5.48333,-5.88333 10.05,-8.65l2.85,-1.25l-2.5,-1.5l1.4,-1.5l0,-1.35l-1.4,-2.4l-1.5,0l0,-4.35l1.9,-2l-1.4,-1.75l-4,0l0,1.25"/>
  </g>
  <g fill="#fcf5e3" stroke="#787878" stroke-width="0.6" stroke-linejoin="bevel" stroke-miterlimit="4" id="g13132" transform="translate(213.33334350585938,189.33334350585938) matrix(1.385313,0,0,1.385313,69.8488,396.885) ">
   <path fill="#fcf5e3" stroke="#787878" stroke-width="0.6" stroke-linecap="round" stroke-linejoin="bevel" stroke-miterlimit="4" id="path13134" d="m5.1,-6.35l-0.25,-1.65l1.75,0l1.5,-1.5l3,0l0,4.4l-3.4,0l-1.1,-1.25l-1.5,0"/>
   <path fill="#fcf5e3" stroke="#787878" stroke-width="0.6" stroke-linecap="round" stroke-linejoin="bevel" stroke-miterlimit="4" id="path13136" d="m4.7,-3.75l0.5,2.35l2.5,0l1,0.8l0,1.85l5.25,2.4l0,1.25l-8.65,0l-5,3.6l-2.1,-2l-7.4,3.05l-4.7,0l1.85,-1.65l0,-3.65l-1.15,-3.25l3,1.4l5,-3.75l0,-1.5l1.65,-1.5l4.1,2.75l2,0l2.15,-2.15"/>
  </g>
  <g fill="#fcf5e3" stroke="#787878" stroke-width="0.6" stroke-linejoin="bevel" stroke-miterlimit="4" id="g14023" transform="translate(213.33334350585938,189.33334350585938) matrix(1.385313,0,0,1.385313,20.13721,434.7262) ">
   <path fill="#fcf5e3" stroke="#787878" stroke-width="0.6" stroke-linecap="round" stroke-linejoin="bevel" stroke-miterlimit="4" id="path14025" d="m13.05,-10.2c-4.06667,2.9 -7.15,7.11667 -9.25,12.65l-4.5,0l0,6.1l-5.15,4.25l-3,0l1.5,6.75l1,2.4l-5.1,0l-3.65,-5.25l2.25,-1.75l-1.35,-3.9l2.35,0l0,-1.6l-1.75,-1.75l1.9,-1.15l-3.5,0l0,-4.25l-1.5,-1.6l-5,3.1l-1.15,1.4l-3.65,0l2.5,-3.15l2.9,0l16,-11.5l0,-4.85l1.6,0l1.4,-4.15l5.1,-3.5l4.75,6.75l3.9,0l8.25,-1l1.9,-1.7l4.7,0l-1.6,1.6l0,4.75l-3.35,0.25l-1.65,2.25l-2.25,-1.15l-4.6,0"/>
  </g>
  <g fill="#fcf5e3" stroke="#787878" stroke-width="0.6" stroke-linejoin="bevel" stroke-miterlimit="4" id="g14911" transform="translate(213.33334350585938,189.33334350585938) matrix(1.385313,0,0,1.385313,106.0696,392.8696) ">
   <path fill="#fcf5e3" stroke="#787878" stroke-width="0.6" stroke-linecap="round" stroke-linejoin="bevel" stroke-miterlimit="4" id="path14913" d="m3.85,-3.3l1.5,-3.1l-1.5,-0.9l-7.15,7.15l0,1.75l-2,1.35l0,2.15l1.4,2.25l3.1,0l1.25,-1.5l1.75,0l1,-1.5l-2,-1.65l0,-3.6l2.65,-2.4"/>
  </g>
  <g fill="#fcf5e3" stroke="#787878" stroke-width="0.6" stroke-linejoin="bevel" stroke-miterlimit="4" id="g15799" transform="translate(213.33334350585938,189.33334350585938) matrix(1.385313,0,0,1.385313,-43.28242,390.9642) ">
   <path fill="#fcf5e3" stroke="#787878" stroke-width="0.6" stroke-linecap="round" stroke-linejoin="bevel" stroke-miterlimit="4" id="path15801" d="m13.5,-2.85l-1.4,-1.85l0,-7.9l-2.9,0l-9.35,9.25l-2.9,0l0,-1.85l-2.1,0l0,1.1l-3.4,0l-2,-1l0,2.5l-3.1,0l0,3.9l1.35,0l0,2.35l-2.1,2l1.35,2.15l0,4.6l2.85,-2.6l2.55,0l2.75,2.85l3.85,0l1.65,-2.1l1.6,0l0,1.6l2,0l0,-2.1l4.65,-4.75l0,-2.65l3.1,0l2.45,-2.3l-0.9,-0.95l0,-2.25"/>
  </g>
  <g fill="#fcf5e3" stroke="#787878" stroke-width="0.6" stroke-linejoin="bevel" stroke-miterlimit="4" id="g1687" transform="translate(213.33334350585938,189.33334350585938) matrix(1.385313,0,0,1.385313,-22.31029,402.9685) ">
   <path fill="#fcf5e3" stroke="#787878" stroke-width="0.6" stroke-linecap="round" stroke-linejoin="bevel" stroke-miterlimit="4" id="path1689" d="m0,-7.55l-0.85,-0.95l-2.45,2.3l-3.1,0l0,2.65l-4.65,4.75l2.15,2l3.1,-1.65l4,0l0,4.4l1.65,0l1.75,-1.5l6,4.35l3.5,-4l0,-6.35l-4.75,-7.25l-2.5,1.25l-3.85,0"/>
  </g>
  <g fill="#fcf5e3" stroke="#787878" stroke-width="0.6" stroke-linejoin="bevel" stroke-miterlimit="4" id="g2575" transform="translate(213.33334350585938,189.33334350585938) matrix(1.385313,0,0,1.385313,7.30722,383.0832) ">
   <path fill="#fcf5e3" stroke="#787878" stroke-width="0.6" stroke-linecap="round" stroke-linejoin="bevel" stroke-miterlimit="4" id="path2577" d="m6.1,-12.85l-4.5,2.25l-8.75,0l-3.35,2.75l-1.15,5.75l-1.35,1.25l0,1.6l-1.9,1.5l0,3.4l4.75,7.25l1.25,-4.4l4.85,-3.65l2.65,1.65l0,1.35l2.35,3.15l4.75,0l4.25,-3.9l5,0l0,-2.5l-3,-6.1l-5,-2.4l0,-2l2.25,-2.35l-3.1,-4.6"/>
  </g>
  <g fill="#fcf5e3" stroke="#787878" stroke-width="0.6" stroke-linejoin="bevel" stroke-miterlimit="4" id="g3463" transform="translate(213.33334350585938,189.33334350585938) matrix(1.385313,0,0,1.385313,31.95805,373.3611) ">
   <path fill="#fcf5e3" stroke="#787878" stroke-width="0.6" stroke-linecap="round" stroke-linejoin="bevel" stroke-miterlimit="4" id="path3465" d="m0.05,-12.95l-1.15,-1l-5,0l-5.6,6.35l0,1.8l3.1,4.6l-2.25,2.35l0,2l5,2.4l3,6.1l0,2.5l2.05,0l0,-1.5l4,0l1,-1.6l1.1,0l0,1.85l2,0l4.4,-3.5l0,-2.75l-4.15,-11.35l0,-5.9l-3.9,-3.55l-1,1.2l-2.6,0"/>
  </g>
  <g fill="#fcf5e3" stroke="#787878" stroke-width="0.6" stroke-linejoin="bevel" stroke-miterlimit="4" id="g4351" transform="translate(213.33334350585938,189.33334350585938) matrix(1.385313,0,0,1.385313,50.0129,368.6063) ">
   <path fill="#fcf5e3" stroke="#787878" stroke-width="0.6" stroke-linecap="round" stroke-linejoin="bevel" stroke-miterlimit="4" id="path4353" d="m0,-12.95l-4.35,4.1l-3.1,0.05l1.95,1.75l0,5.9l4.15,11.35l0,2.75l3.75,0l5.1,-3.85l0,-4.4l-4.1,-4.25l0,-7.6l-3.4,-5.8"/>
  </g>
  <g fill="#fcf5e3" stroke="#787878" stroke-width="0.6" stroke-linejoin="bevel" stroke-miterlimit="4" id="g5239" transform="translate(213.33334350585938,189.33334350585938) matrix(1.385313,0,0,1.385313,69.23261,376.7667) ">
   <path fill="#fcf5e3" stroke="#787878" stroke-width="0.6" stroke-linecap="round" stroke-linejoin="bevel" stroke-miterlimit="4" id="path5241" d="m9.6,-8.8l-2.85,1.15l-17.25,-0.4l0,2.5l4.1,4.25l0,4.4l-2.55,1.95l0,2.15l2.45,0l0,1.65l1.75,0l3.35,-1.15l3.4,-4.1l3.1,0l5.4,-5.25l-0.9,-3.4l0,-3.75"/>
  </g>
  <g fill="#fcf5e3" stroke="#787878" stroke-width="0.6" stroke-linejoin="bevel" stroke-miterlimit="4" id="g6127" transform="translate(213.33334350585938,189.33334350585938) matrix(1.385313,0,0,1.385313,68.69866,354.7993) ">
   <path fill="#fcf5e3" stroke="#787878" stroke-width="0.6" stroke-linecap="round" stroke-linejoin="bevel" stroke-miterlimit="4" id="path6129" d="m13.6,-2.55l0,3.6l-3.65,3.75l0,2.25l-2.85,1.15l-17.25,-0.4l0,-5.1l-3.4,-5.8l4.4,-4.2l10.5,0l0.95,-0.9l2.65,0.75l3.9,4.9l4.75,0"/>
  </g>
  <g fill="#fcf5e3" stroke="#787878" stroke-width="0.6" stroke-linejoin="bevel" stroke-miterlimit="4" id="g7015" transform="translate(213.33334350585938,189.33334350585938) matrix(1.385313,0,0,1.385313,100.4674,364.9772) ">
   <path fill="#fcf5e3" stroke="#787878" stroke-width="0.6" stroke-linecap="round" stroke-linejoin="bevel" stroke-miterlimit="4" id="path7017" d="m7.5,-7.75l3.3,4.9l2.35,1.15l-2.6,14.1l-9.65,-6.6l-2.35,0l0,1l-3,0l0,-1.5l-3.4,0l-1.5,1.5l-2.85,0l-0.9,-3.4l0,-6l3.65,-3.75l0,-3.6l3.75,-2.4l0,1.5l4.35,-0.25l1.75,1.75l7.15,0l-0.05,1.6"/>
  </g>
  <g fill="#fcf5e3" stroke="#787878" stroke-width="0.6" stroke-linejoin="bevel" stroke-miterlimit="4" id="g7903" transform="translate(213.33334350585938,189.33334350585938) matrix(1.385313,0,0,1.385313,-5.454081,368.5817) ">
   <path fill="#fcf5e3" stroke="#787878" stroke-width="0.6" stroke-linecap="round" stroke-linejoin="bevel" stroke-miterlimit="4" id="path7905" d="m13.9,-15.1l1.35,6.35l0,6.4l-4.5,2.25l-8.75,0l-3.35,2.75l-1.15,5.75l-1.35,1.25l0,1.6l-1.9,1.5l0,3.4l-2.5,1.25l-3.85,0l-1.75,-1.9l0,-2.25l-1.4,-1.85l0,-7.9l2.4,0l10.6,-10l5.5,-3.85l1.5,0l1.15,-1.15l0,-1.1l2.35,-3.25l3,-1.5l2.65,2.25"/>
  </g>
  <g fill="#fcf5e3" stroke="#787878" stroke-width="0.6" stroke-linejoin="bevel" stroke-miterlimit="4" id="g8791" transform="translate(213.33334350585938,189.33334350585938) matrix(1.385313,0,0,1.385313,26.90032,344.8485) ">
   <path fill="#fcf5e3" stroke="#787878" stroke-width="0.6" stroke-linecap="round" stroke-linejoin="bevel" stroke-miterlimit="4" id="path8793" d="m7.45,-6.05l3.1,0l1.5,3.65l0,2.75l-5.75,7.25l-2.6,0l-1.15,-1l-5,0l-5.6,6.35l0,-4.6l-1.35,-6.35l-2.65,-2.25l3.85,-3.15l0,-1.65l-1.35,-1.75l3.75,0l2.75,-2.5l4.35,0l4.25,-3.6l1.75,2.25l4.65,0l-2,1.5l-3.75,0l-1.25,1.1l-4.25,0l-1.9,2.4l2.25,0l2.4,-1.4l2.5,0l1.5,1"/>
  </g>
  <g fill="#fcf5e3" stroke="#787878" stroke-width="0.6" stroke-linejoin="bevel" stroke-miterlimit="4" id="g9679" transform="translate(213.33334350585938,189.33334350585938) matrix(1.385313,0,0,1.385313,55.02906,344.2737) ">
   <path fill="#fcf5e3" stroke="#787878" stroke-width="0.6" stroke-linecap="round" stroke-linejoin="bevel" stroke-miterlimit="4" id="path9681" d="m2.85,-7.65l-3.1,-1l-3.5,0l-1.65,2.85l-1.35,0l-2.75,-2.1l-1.65,0l1.35,2.35l1.5,3.65l0,2.75l-4.75,6.05l1.95,1.8l3.1,-0.05l8.75,-8.3l10.5,0l1.85,-1.75l0,-2.25l-2.75,-4l-7.5,0"/>
  </g>
  <g fill="#fcf5e3" stroke="#787878" stroke-width="0.6" stroke-linejoin="bevel" stroke-miterlimit="4" id="g10567" transform="translate(213.33334350585938,189.33334350585938) matrix(1.385313,0,0,1.385313,37.78752,298.7218) ">
   <path fill="#fcf5e3" stroke="#787878" stroke-width="0.6" stroke-linecap="round" stroke-linejoin="bevel" stroke-miterlimit="4" id="path10569" d="m7.15,-0.95l-2.4,1.5l-1.6,-0.35l-2.4,-1.5l0,-2.65l2.5,-3l3.9,3.15l0,2.85"/>
   <path fill="#fcf5e3" stroke="#787878" stroke-width="0.6" stroke-linecap="round" stroke-linejoin="bevel" stroke-miterlimit="4" id="path10571" d="m-3,1.45l0,4.35l2.75,-2.6l-2.75,-1.75m-1.1,-0.25l-1,0.35l0,2.3l1,0.95l0,-3.6m-2,0.7l0,3.25l-1,-0.95l0,-2l1,-0.3m1,5.05l2.25,0l-1.5,-1.15l-0.75,0.75l0,0.4"/>
  </g>
  <g fill="#fcf5e3" stroke="#787878" stroke-width="0.6" stroke-linejoin="bevel" stroke-miterlimit="4" id="g11458" transform="translate(213.33334350585938,189.33334350585938) matrix(1.385313,0,0,1.385313,81.09777,339.8517) ">
   <path fill="#fcf5e3" stroke="#787878" stroke-width="0.6" stroke-linecap="round" stroke-linejoin="bevel" stroke-miterlimit="4" id="path11460" d="m6.45,-4.4l2,5.4l0,4.85l-3.75,2.4l-4.75,0l-3.9,-4.9l-2.65,-0.75l0.9,-0.85l0,-2.25l-2.75,-4l1.9,-1.25l2.5,1.5l1.25,-1l3.25,0l4,-3l2,0l0,3.85"/>
  </g>
  <g fill="#fcf5e3" stroke="#787878" stroke-width="0.6" stroke-linejoin="bevel" stroke-miterlimit="4" id="g12346" transform="translate(213.33334350585938,189.33334350585938) matrix(1.385313,0,0,1.385313,104.2452,339.2505) ">
   <path fill="#fcf5e3" stroke="#787878" stroke-width="0.6" stroke-linecap="round" stroke-linejoin="bevel" stroke-miterlimit="4" id="path12348" d="m3.05,-3.6l3.25,1.5l2.75,0l1.25,1.85l-5.25,4.25l-0.1,5.25l-7.15,0l-1.75,-1.75l-4.35,0.25l0,-6.35l-2,-5.4l0,-3.85l3.1,-1.4l1.5,1l8.75,0l0,4.65"/>
  </g>
  <g fill="#fcf5e3" stroke="#787878" stroke-width="0.6" stroke-linejoin="bevel" stroke-miterlimit="4" id="g13234" transform="translate(213.33334350585938,189.33334350585938) matrix(1.385313,0,0,1.385313,126.5251,352.8958) ">
   <path fill="#fcf5e3" stroke="#787878" stroke-width="0.6" stroke-linecap="round" stroke-linejoin="bevel" stroke-miterlimit="4" id="path13236" d="m11.2,-6.3l0,7l-5.1,9.4l-2.75,0l-3.5,-3l-5.4,0l-2.35,-1.15l-3.3,-4.9l0.05,-1.6l0.1,-5.25l5.25,-4.25l2.9,3.9l1.6,0l5.5,-3.65l7,3.5"/>
  </g>
  <g fill="#fcf5e3" stroke="#787878" stroke-width="0.6" stroke-linejoin="bevel" stroke-miterlimit="4" id="g14122" transform="translate(213.33334350585938,189.33334350585938) matrix(1.385313,0,0,1.385313,121.4827,332.9459) ">
   <path fill="#fcf5e3" stroke="#787878" stroke-width="0.6" stroke-linecap="round" stroke-linejoin="bevel" stroke-miterlimit="4" id="path14124" d="m0.2,-0.7l3.5,3.25l4.25,-4.25l1.5,2.25l-1.65,1.4l0,2.6l-5.5,3.65l-1.6,0l-4.15,-5.75l-2.75,0l-3.25,-1.5l0,-4.65l2.15,0l3.85,-3.6l2.25,0l0,-0.9l4,0l1.15,2.9l-3.75,4.6"/>
  </g>
  <g fill="#fcf5e3" stroke="#787878" stroke-width="0.6" stroke-linejoin="bevel" stroke-miterlimit="4" id="g15010" transform="translate(213.33334350585938,189.33334350585938) matrix(1.385313,0,0,1.385313,126.665,373.1781) ">
   <path fill="#fcf5e3" stroke="#787878" stroke-width="0.6" stroke-linecap="round" stroke-linejoin="bevel" stroke-miterlimit="4" id="path15012" d="m5.9,-4.65l-2.75,0l-3.5,-3l-5.4,0l-2.70378,14.30757l5.75,-3.35l3.35378,-0.20757l2.35,2.5l0,2.1l3.4,0l2,-8.1l0,-2.65l-2.5,-1.6"/>
  </g>
  <g fill="#fcf5e3" stroke="#787878" stroke-width="0.6" stroke-linejoin="bevel" stroke-miterlimit="4" id="g15898" transform="translate(213.33334350585938,189.33334350585938) matrix(1.385313,0,0,1.385313,125.047,391.4615) ">
   <path fill="#fcf5e3" stroke="#787878" stroke-width="0.6" stroke-linecap="round" stroke-linejoin="bevel" stroke-miterlimit="4" id="path15900" d="m7.65,-5.5l-3.4,0l0,2.15l-3.5,3.85l-8.35,5l11.1,-1.25l3.25,-5.35l0.9,-4.4"/>
  </g>
  <g fill="#fcf5e3" stroke="#787878" stroke-linejoin="bevel" id="g19455" transform="translate(213.33334350585938,189.33334350585938) matrix(1.385313,0,0,1.385313,146.0491,389.7411) "/>
  <g fill="#fcf5e3" stroke="#787878" stroke-width="0.6" stroke-linejoin="bevel" stroke-miterlimit="4" id="g22122" transform="translate(213.33334350585938,189.33334350585938) matrix(1.385313,0,0,1.385313,149.3606,398.9381) ">
   <path fill="#fcf5e3" stroke="#787878" stroke-width="0.6" stroke-linecap="round" stroke-linejoin="bevel" stroke-miterlimit="4" id="path22124" d="m9.7,-8.85l-4.1,0l0,-4.9l-1.15,-1l-6.1,0l-2.65,-1l-3.1,5l0,2.25l1.25,1.25l0,10.25l-4.5,5.4l1.6,2.35l0,2.4l3.15,2.6l6.25,0l0,-1.75l3.75,-3l2.6,0l1.15,-2l0.1,-9.85l-1.6,0l0,-3.4l1.35,0l3,-2l-1,-2.6"/>
  </g>
  <g fill="#fcf5e3" stroke="#787878" stroke-width="0.6" stroke-linejoin="bevel" stroke-miterlimit="4" id="g23010" transform="translate(213.33334350585938,189.33334350585938) matrix(1.385313,0,0,1.385313,146.1869,361.9531) ">
   <path fill="#fcf5e3" stroke="#787878" stroke-width="0.6" stroke-linecap="round" stroke-linejoin="bevel" stroke-miterlimit="4" id="path23012" d="m0.45,-12.85l-3.5,0l0,7l-5.1,9.4l2.5,1.6l3.6,5.75l2.65,1l6.1,0l1.15,1l0,-2l0.35,-3l-1,0l-4.85,-2.6l-1.15,-2.9l0,-6l1.25,0l0,-7.1l-2,-2.15"/>
  </g>
  <g fill="#fcf5e3" stroke="#787878" stroke-width="0.6" stroke-linejoin="bevel" stroke-miterlimit="4" id="g23919" transform="translate(213.33334350585938,189.33334350585938) matrix(1.385313,0,0,1.385313,136.5645,383.5487) ">
   <path fill="#fcf5e3" stroke="#787878" stroke-width="0.6" stroke-linecap="round" stroke-linejoin="bevel" stroke-miterlimit="4" id="path23921" d="m3.04541,9.01032l0.13809,-5.13772l-1.19853,-1.36121l0.02886,-2.30791l2.88617,-4.70348l-3.39243,-5.33486l-0.20757,2.23486l-1.98494,7.40827l-0.82229,4.52948l-3.23327,5.62171l3.38857,0.08187l1.605,-1.10462l2.7256,0.14632"/>
  </g>
  <g fill="#fcf5e3" stroke="#787878" stroke-width="0.6" stroke-linejoin="bevel" stroke-miterlimit="4" id="g30924" transform="translate(213.33334350585938,189.33334350585938) matrix(1.385313,0,0,1.385313,144.9041,336.9356) ">
   <path fill="#fcf5e3" stroke="#787878" stroke-width="0.6" stroke-linecap="round" stroke-linejoin="bevel" stroke-miterlimit="4" id="path30926" d="m9.15,-0.15l-5.6,4.1l-2.15,0l0,1.25l-3.5,0l-7,-3.5l0,-2.6l1.65,-1.4l1.25,1.5l2.35,0l0,1.25l3.5,0l-1.35,-2.1l0,-1l1.75,0l1.25,1.5l1.6,-1.65l0,-2.35l2.15,0l0,1.1l4.1,0l0,3.9"/>
  </g>
  <g fill="#fcf5e3" stroke="#787878" stroke-width="0.6" stroke-linejoin="bevel" stroke-miterlimit="4" id="g31812" transform="translate(213.33334350585938,189.33334350585938) matrix(1.385313,0,0,1.385313,173.4006,316.2833) ">
   <path fill="#fcf5e3" stroke="#787878" stroke-width="0.6" stroke-linecap="round" stroke-linejoin="bevel" stroke-miterlimit="4" id="path31814" d="m10.8,-2l2.65,3l0,1.85l-2.5,1.65l-12,0l-2.95,3.75l-3.15,0l0,3.25l-4.25,3.25l0,-3.9l-2.05,0l0,-5.1l2.05,0l0,2.85l2.25,0l0,-4.85l-3.4,-2.5l0,-5.9l5.25,-8.6l3.25,-1.5l2.4,2.25l0,2.6l2.75,1.5l2.85,0l2.9,2l3.95,0l0,4.4"/>
  </g>
  <path transform="translate(213.33334350585938,189.33334350585938) " fill="#fcf5e3" stroke="#787878" stroke-width="0.831188" stroke-linecap="round" stroke-linejoin="bevel" stroke-miterlimit="4" id="path1781" d="m193.76545,266.93297l0,3.32474l-3.67108,5.54125l0,7.96554l1.73164,0l0,3.60182l-2.2165,1.73165l0,7.2729l1.87017,1.38531l0,4.36374l-3.18621,5.33346l-5.47199,0l-4.01741,-2.77063l-3.94814,0l-3.80961,-2.07799l0,-3.60181l-3.32474,-3.11694l2.14722,-2.07797l0,-1.38532l2.90917,0l5.54123,-7.96556l5.74906,-6.92656l5.54125,-12.81413l4.15594,2.2165"/>
  <g fill="#fcf5e3" stroke="#787878" stroke-width="0.6" stroke-linejoin="bevel" stroke-miterlimit="4" id="g2667" transform="translate(213.33334350585938,189.33334350585938) matrix(1.385313,0,0,1.385313,200.3956,248.9502) ">
   <path fill="#fcf5e3" stroke="#787878" stroke-width="0.6" stroke-linecap="round" stroke-linejoin="bevel" stroke-miterlimit="4" id="path2669" d="m2.8,-2.05l-2.95,3.75l-2.75,-1.85l-1.65,4.1l0,1.65l2.9,1.25l2.6,-2l0,5.1l-3,0l-2.7,3l-3,-1.6l0,-2.25l-1.65,-2l0,-3.5l-0.9,-0.5l0,-3.4l1,0l0,-3.85l4.5,-2.75l4.15,0l4.75,-3.5l4.75,0l1.5,1.5l0,1.75l-2.9,0l0,2.55l-2.35,2.55l-2.3,0m-5.3,6.75l0,-1.5l2.75,0l-1,1.5l-1.75,0"/>
  </g>
  <g fill="#fcf5e3" stroke="#787878" stroke-width="0.6" stroke-linejoin="bevel" stroke-miterlimit="4" id="g3555" transform="translate(213.33334350585938,189.33334350585938) matrix(1.385313,0,0,1.385313,209.8891,280.6033) ">
   <path fill="#fcf5e3" stroke="#787878" stroke-width="0.6" stroke-linecap="round" stroke-linejoin="bevel" stroke-miterlimit="4" id="path3557" d="m10.2,-13.35l2.35,0l2.15,4.4l0,9.75l-4.9,8.1l-2,0l-3.35,-2l-7.35,0l-3.65,3.65l-1.25,2.85l-1.9,0l0,-2.6l-2.5,0l-1.75,1.1l-0.7,-0.5l0,-5.25l1.6,-1.25l0,-2.6l-1.25,0l0,-5.75l2.65,-4l0,-2.4l2.7,-3l3,0l0,1.4l-1.5,1l0,2.1l4.15,3.4l3.85,0l3.9,-2.5l0,-3.65l5.75,-2.25"/>
  </g>
  <g fill="#fcf5e3" stroke="#787878" stroke-width="0.6" stroke-linejoin="bevel" stroke-miterlimit="4" id="g4443" transform="translate(213.33334350585938,189.33334350585938) matrix(1.385313,0,0,1.385313,271.8513,227.1328) ">
   <path fill="#fcf5e3" stroke="#787878" stroke-width="0.6" stroke-linecap="round" stroke-linejoin="bevel" stroke-miterlimit="4" id="path4445" d="m21.6,-33.2l-2.15,5.25l-1.35,8.15l-3.5,6.35l-9.4,4.25l-4.85,4.65l-1.75,5.75l-5.15,9.25l-9.35,6.5l0,1.5l-4.75,0l-4,3.6l-7.5,3.25l2.15,4.4l0,3.5l1.95,-2.15l0,-3.1l5,0l1.5,2.25l6.5,0l5.65,-6.9l2.85,0l1.9,1.25l0,2.9l1.5,1.6l0,3.9l5.25,0l1.5,-2.9l2.25,0l0,-5.25l4.35,-3l3.15,4.25l1.25,0l0,-4.35l-1.4,-5.15l-1.25,0l0,-4.5l1.25,-0.25l0,-5.05l1.25,-0.8l3.25,0l1.5,-1.5l4.75,0l0,-4.5l3.4,-4.65l-3.4,-4l1.75,-4.1l0,-5.9l1.75,-1.85l2.5,0l2.25,-1.75l-3,-3.65l-1.75,0l0,-3.85l-5.85,-3.4"/>
  </g>
  <g fill="#fcf5e3" stroke="#787878" stroke-width="0.6" stroke-linejoin="bevel" stroke-miterlimit="4" id="g5331" transform="translate(213.33334350585938,189.33334350585938) matrix(1.385313,0,0,1.385313,255.4956,206.2509) ">
   <path fill="#fcf5e3" stroke="#787878" stroke-width="0.6" stroke-linecap="round" stroke-linejoin="bevel" stroke-miterlimit="4" id="path5333" d="m1.45,-3.3l0,2.9l3,0l1,1l-2,4.1l-3,2.9l-3.25,2.1l-2.65,0l0,-1.5l2.25,-1.75l1.4,-2.75l-1.25,-1.75l-1.65,1.5l0,-5.1l5.15,-6.4l1.75,-1.6l1.5,0l0,2.1l-2.25,4.25"/>
  </g>
  <g fill="#fcf5e3" stroke="#787878" stroke-width="0.6" stroke-linejoin="bevel" stroke-miterlimit="4" id="g6234" transform="translate(213.33334350585938,189.33334350585938) matrix(1.385313,0,0,1.385313,161.6054,380.2418) ">
   <path fill="#fcf5e3" stroke="#787878" stroke-width="0.6" stroke-linecap="round" stroke-linejoin="bevel" stroke-miterlimit="4" id="path6236" d="m1.3,-7.3l-3.25,0l-1,2.1l-0.35,3l0,6.9l4.1,0l1,2.6l1.5,-5.85l0,-6l-2,-2.75"/>
  </g>
  <g fill="#fcf5e3" stroke="#787878" stroke-width="0.6" stroke-linejoin="bevel" stroke-miterlimit="4" id="g7122" transform="translate(213.33334350585938,189.33334350585938) matrix(1.385313,0,0,1.385313,172.9695,378.383) ">
   <path fill="#fcf5e3" stroke="#787878" stroke-width="0.6" stroke-linecap="round" stroke-linejoin="bevel" stroke-miterlimit="4" id="path7124" d="m6.3,-18.85l-1.35,-1.4l-2.15,0l-1.75,1.9l0,5.25l-4.75,7l-3.25,0l2,2.75l0,6l-1.5,5.85l-3,2l-1.35,0l0,3.4l1.6,0l-0.1,2.85l5.1,2.25l0,1.25l8.15,-4.1l3.85,-1.4l3,-3.5l0,-3.75l-6.75,-4.6l0,-2.35l-1.1,0l0,-1.9l5,-7l2.1,-4.5l-2.6,-3.15l-1.15,0l0,-2.85"/>
  </g>
  <g fill="#fcf5e3" stroke="#787878" stroke-width="0.6" stroke-linejoin="bevel" stroke-miterlimit="4" id="g8010" transform="translate(213.33334350585938,189.33334350585938) matrix(1.385313,0,0,1.385313,189.0706,395.3973) ">
   <path fill="#fcf5e3" stroke="#787878" stroke-width="0.6" stroke-linecap="round" stroke-linejoin="bevel" stroke-miterlimit="4" id="path8012" d="m2.05,-4.8l-2.9,0l0,3.75l-3,3.5l2.75,0l0,2.4l3.65,0l0,-4l1.35,-1.65l0,-2.1l-1.85,0l0,-1.9"/>
  </g>
  <g fill="#fcf5e3" stroke="#787878" stroke-width="0.6" stroke-linejoin="bevel" stroke-miterlimit="4" id="g8898" transform="translate(213.33334350585938,189.33334350585938) matrix(1.385313,0,0,1.385313,197.3714,361.6996) ">
   <path fill="#fcf5e3" stroke="#787878" stroke-width="0.6" stroke-linecap="round" stroke-linejoin="bevel" stroke-miterlimit="4" id="path8900" d="m8.9,-9l-7,0l0,-3.25l-4.9,0l-4.25,1.75l0,1.85l-1.6,1.15l0.05,5.15l1.3,1.6l3.65,0l0,1.25l-1.15,1l0,4.25l1.25,0l0,4.75l2.5,1.75l0,-7l3.15,-4.75l2.5,-1.5l0,-2.15l4.5,-5.85"/>
  </g>
  <g fill="#fcf5e3" stroke="#787878" stroke-width="0.6" stroke-linejoin="bevel" stroke-miterlimit="4" id="g9786" transform="translate(213.33334350585938,189.33334350585938) matrix(1.385313,0,0,1.385313,214.1978,367.1742) ">
   <path fill="#fcf5e3" stroke="#787878" stroke-width="0.6" stroke-linecap="round" stroke-linejoin="bevel" stroke-miterlimit="4" id="path9788" d="m5.95,-13.25l0,3.25l3.65,0l0,-1.4l2.6,0l1.25,1.5l0,1.9l-6.1,10.75l-3.5,1.6l0,5l-11.9,3.9l-3.25,0l0,-1.4l2.65,-2.35l3.6,0l4.25,-2l0,-2l-1,-1.15l-3.6,0l0,1l-4.75,0l-3.25,-2.35l0,-1.75l3.15,-4.75l2.5,-1.5l0,-2.15l4.5,-5.85l5.6,2.6l3.6,-2.85"/>
  </g>
  <g fill="#fcf5e3" stroke="#787878" stroke-width="0.6" stroke-linejoin="bevel" stroke-miterlimit="4" id="g10674" transform="translate(213.33334350585938,189.33334350585938) matrix(1.385313,0,0,1.385313,235.9123,364.1542) ">
   <path fill="#fcf5e3" stroke="#787878" stroke-width="0.6" stroke-linecap="round" stroke-linejoin="bevel" stroke-miterlimit="4" id="path10676" d="m6.65,-14.2l-8.9,6.5l0,1.9l-6.1,10.75l-3.5,1.6l0,5l2.1,-4.1l2.15,0l-1.5,2.5l2.35,1.85l10.5,0l6.5,2.4l0,-3.75l1.65,-1.75l-2.4,0l-1.5,-5.15l0,-1.6l0.9,0l0,-10.9l-2.25,-2l0,-3.25"/>
  </g>
  <g fill="#fcf5e3" stroke="#787878" stroke-width="0.6" stroke-linejoin="bevel" stroke-miterlimit="4" id="g11562" transform="translate(213.33334350585938,189.33334350585938) matrix(1.385313,0,0,1.385313,264.5592,353.2033) ">
   <path fill="#fcf5e3" stroke="#787878" stroke-width="0.6" stroke-linecap="round" stroke-linejoin="bevel" stroke-miterlimit="4" id="path11564" d="m14.05,-5.8l-5.15,-2.75l0,1l-5.5,1.25l-2.1,-2l-1.75,0l0,7.4l-1.75,1.25l-1.9,0l-3.6,-5.25l-2.5,0l0,-3.75l1.1,0l0,-3.65l-2.35,-4.25l-2.6,10.25l0,3.25l2.25,2l0,10.9l-0.9,0l0,1.6l1.5,5.15l2.4,0l3.35,-6.65l3.85,-2.85l0,-1.65l3.65,-2.85l5,0l2.5,2l3.85,-4.5l-1.1,-1.25l0,-2l1.75,-2.65"/>
  </g>
  <g fill="#fcf5e3" stroke="#787878" stroke-width="0.6" stroke-linejoin="bevel" stroke-miterlimit="4" id="g12450" transform="translate(213.33334350585938,189.33334350585938) matrix(1.385313,0,0,1.385313,279.9373,368.1619) ">
   <path fill="#fcf5e3" stroke="#787878" stroke-width="0.6" stroke-linecap="round" stroke-linejoin="bevel" stroke-miterlimit="4" id="path12452" d="m2.3,-10.65l-3.85,4.5l0,1.5l-3.65,0l0,10.75l-1.1,0l0,2l2.85,2.6l2.4,0l2.85,-2.85l3.25,-6.9l1.25,0l0,-3.5l-1.5,-1.5l0,-4.1l-2.5,-2.5"/>
  </g>
  <g fill="#fcf5e3" stroke="#787878" stroke-width="0.6" stroke-linejoin="bevel" stroke-miterlimit="4" id="g13338" transform="translate(213.33334350585938,189.33334350585938) matrix(1.385313,0,0,1.385313,295.4648,342.4049) ">
   <path fill="#fcf5e3" stroke="#787878" stroke-width="0.6" stroke-linecap="round" stroke-linejoin="bevel" stroke-miterlimit="4" id="path13340" d="m-5.25,-5.75l-8.15,5l5.15,2.75l-1.75,2.65l0,2l3.6,3.75l1.4,-1.5l0,-2.25l6.65,-4.4l4.6,0l2.15,1.65l1.5,3.5l0,2.25l1.1,0l0,-3.5l2.4,-1.5l0,-1.15l-2.65,0l0,-3.5l-1.6,0l-5.65,-5.85l-8.75,-4.5l0,4.6"/>
  </g>
  <g fill="#fcf5e3" stroke="#787878" stroke-width="0.6" stroke-linejoin="bevel" stroke-miterlimit="4" id="g14226" transform="translate(213.33334350585938,189.33334350585938) matrix(1.385313,0,0,1.385313,268.4559,333.6594) ">
   <path fill="#fcf5e3" stroke="#787878" stroke-width="0.6" stroke-linecap="round" stroke-linejoin="bevel" stroke-miterlimit="4" id="path14228" d="m1.6,-12.25l-1.75,1.85l-1.85,0l0,-1.5l-3.9,0l-2.35,-2.6l-1.15,0l-1.5,3.6l-1.85,0l-1.5,3l0,5.5l2.35,4.25l0,3.65l-1.1,0l0,3.75l2.5,0l3.6,5.25l1.9,0l1.75,-1.25l0,-7.4l1.75,0l2.1,2l5.5,-1.25l0,-1l8.15,-5l0,-4.6l-5.15,-2.25l-3,-4.4l-4.5,-1.6"/>
  </g>
  <g fill="#fcf5e3" stroke="#787878" stroke-width="0.6" stroke-linejoin="bevel" stroke-miterlimit="4" id="g15114" transform="translate(213.33334350585938,189.33334350585938) matrix(1.385313,0,0,1.385313,296.0446,319.5789) ">
   <path fill="#fcf5e3" stroke="#787878" stroke-width="0.6" stroke-linecap="round" stroke-linejoin="bevel" stroke-miterlimit="4" id="path15116" d="m17.45,-2.55l0,6.65l0.75,1.25l0,2.35l-4.15,0l0,2.75l-3.6,2.65l0,3.35l-1.6,0l-5.65,-5.85l-13.9,-6.75l-3,-4.4l-4.5,-1.6l0,-2.5l1.15,-3l2.15,0l4,-3.15l2.25,0l0,-2.6l3.1,-3.05l10,3.05l3.5,0l2.4,-1l5.35,11.85l1.75,0"/>
  </g>
  <g fill="#fcf5e3" stroke="#787878" stroke-width="0.6" stroke-linejoin="bevel" stroke-miterlimit="4" id="g16002" transform="translate(213.33334350585938,189.33334350585938) matrix(1.385313,0,0,1.385313,326.6336,358.8296) ">
   <path fill="#fcf5e3" stroke="#787878" stroke-width="0.6" stroke-linecap="round" stroke-linejoin="bevel" stroke-miterlimit="4" id="path16004" d="m4.2,-2.4l-5.6,3.75l0,2.75l-2.4,2.25l-2.5,0l-2.25,-4l3.15,0l-1.9,-2l1,-2l-1.25,-1l0,-2.5l2.15,-1.2l0,1.45l4.1,0l0,-1l4.65,0l5.25,2.15l-4.4,1.35"/>
  </g>
  <g fill="#fcf5e3" stroke="#787878" stroke-width="0.6" stroke-linejoin="bevel" stroke-miterlimit="4" id="g16890" transform="translate(213.33334350585938,189.33334350585938) matrix(1.385313,0,0,1.385313,332.8114,339.2766) ">
   <path fill="#fcf5e3" stroke="#787878" stroke-width="0.6" stroke-linecap="round" stroke-linejoin="bevel" stroke-miterlimit="4" id="path16892" d="m3.05,-5.05l-2.15,1.05l-3.8,0l-5.45,4.55l0,1.15l-3.4,2.6l0,2.15l1.9,0l0,2.85l4.1,0l0,-1l4.65,0l5.25,2.15l2.15,-2l0.75,-2.25l0,-3.15l-1,0l0,-3.35l2.6,-4.9l3.15,-2.85l-3.65,-2.4l-2.6,0l-2.5,5.4"/>
  </g>
  <g fill="#fcf5e3" stroke="#787878" stroke-width="0.6" stroke-linejoin="bevel" stroke-miterlimit="4" id="g17778" transform="translate(213.33334350585938,189.33334350585938) matrix(1.385313,0,0,1.385313,335.5329,314.83) ">
   <path fill="#fcf5e3" stroke="#787878" stroke-width="0.6" stroke-linecap="round" stroke-linejoin="bevel" stroke-miterlimit="4" id="path17780" d="m-18.15,-10.95l5.35,11.85l1.75,0l0,6.65l0.75,1.25l2.25,0l3.75,3.25l0,1.1l-0.55,0.45l3.8,0l2.15,-1.05l2.5,-5.4l2.6,0l3.65,2.4l3.25,-2.15l5.1,0l0,-1.5l-11.35,-5.5l-4.65,0l-7.75,-3.5l-2.25,-2.25l0,-4.85l-5.1,-3.4l-5.25,2.65"/>
  </g>
  <path transform="translate(213.33334350585938,189.33334350585938) " fill="#fcf5e3" stroke="#787878" stroke-width="0.831188" stroke-linecap="round" stroke-linejoin="bevel" stroke-miterlimit="4" id="path18668" d="m348.99673,284.52921l0,7.61922l-1.87018,1.52386l0,7.96552l11.84442,20.57192l-13.92239,-6.71877l-6.44171,0l-10.73618,-4.8486l-3.11696,-3.11694l0,-6.71878l-7.06508,-4.71007l10.38983,-5.88758l3.11696,0.34634l3.8096,-4.98714l0,-20.64117l-1.03897,0l0,-2.8399l3.8096,3.18623l5.54126,0l4.29447,-3.25548l4.01741,0l5.19492,3.60181l0,2.77064c-4.06357,5.40272 -6.67258,10.78233 -7.827,16.13889"/>
  <path transform="translate(213.33334350585938,189.33334350585938) " fill="#daf0fd" stroke="#27aaea" stroke-width="0.831188" stroke-linejoin="bevel" stroke-miterlimit="4" id="path18670" d="m344.84076,303.02313l5.54128,9.00454l0.20778,2.77064l-2.07795,-1.73164l-3.67111,-6.23392l0,-3.80962m0.55414,9.55868l-4.0174,-7.82703l-4.29449,-2.4243l-0.06925,1.59311l1.93942,1.73165l-1.87017,2.21651l-4.36372,-2.42431l0,1.93943l8.17334,3.94815l4.50227,1.24679"/>
  <path transform="translate(213.33334350585938,189.33334350585938) " fill="#fcf5e3" stroke="#787878" stroke-width="0.831188" stroke-linecap="round" stroke-linejoin="bevel" stroke-miterlimit="4" id="path21305" d="m163.42017,332.26876l-13.64535,10.18206l-2.9784,0l0,1.73163l2.77061,2.97843l0,9.83573l-1.73164,0l0,8.31188l1.59311,4.0174l6.71878,3.6018l1.38531,0l1.3853,-2.90914l9.00455,0l6.58023,-9.6972l0,-7.27289l-2.4243,-4.84859l2.6321,-4.36375l0,-5.33346l-2.14723,-3.39401l-2.2165,-0.06927l-0.20781,-3.60179l-2.35502,-3.67108l-4.36374,0l0,4.50225"/>
  <path transform="translate(213.33334350585938,189.33334350585938) " fill="#daf0fd" stroke="#27aaea" stroke-width="0.831188" stroke-linejoin="bevel" stroke-miterlimit="4" id="path21307" d="m163.76651,339.68019l4.0174,5.88757l0,2.77064l-4.50228,2.07796l-5.0564,4.15595l0,1.93944l-3.6018,0l-3.46329,7.61921l0,-5.88757l1.73165,-3.32475l0,-2.77065l4.84858,-5.33344l0.13854,-5.88758l5.8876,-3.80961l0,2.56283"/>
  <g fill="#fcf5e3" stroke="#787878" stroke-width="0.6" stroke-linejoin="bevel" stroke-miterlimit="4" id="g23940" transform="translate(213.33334350585938,189.33334350585938) matrix(1.385313,0,0,1.385313,196.791,334.2444) ">
   <path fill="#fcf5e3" stroke="#787878" stroke-width="0.6" stroke-linecap="round" stroke-linejoin="bevel" stroke-miterlimit="4" id="path23942" d="m0.25,-13.45l-4,-4l-2.4,0l0,2.5l2.65,3l0,1.85l-2.5,1.65l-12,0l-2.95,3.75l1.7,2.65l0.15,2.6l1.6,0.05l1.55,2.45l0,3.85l-1.9,3.15l1.75,3.5l1.75,-1.9l2.15,0l1.35,1.4l0,2.85l1.15,0l1.3,1.55l-0.05,-5.15l1.6,-1.15l0,-1.85l4.25,-1.75l4.9,0l0,3.25l7,0l5.6,2.6l3.6,-2.85l1.5,-1.65l1,-3.1l0,-4.4l-2.4,0l-1.25,-1.85l0,-3.9l-2.9,-2l-6.2,3l-3.9,0l-1.6,-1.35l2.6,-2.65l0,-4.6l-1.1,-1.5l-4,0"/>
  </g>
  <g fill="#fcf5e3" stroke="#787878" stroke-width="0.6" stroke-linejoin="bevel" stroke-miterlimit="4" id="g24828" transform="translate(213.33334350585938,189.33334350585938) matrix(1.385313,0,0,1.385313,206.4397,309.7972) ">
   <path fill="#fcf5e3" stroke="#787878" stroke-width="0.6" stroke-linecap="round" stroke-linejoin="bevel" stroke-miterlimit="4" id="path24830" d="m12.35,-8.35l0,-3.9l-2,0l-3.35,-2l-7.35,0l-3.65,3.65l-1.25,2.85l-1.9,0l0,-2.6l-2.5,0l-1.75,1.1l0.65,0.5l0,3.15l-2.3,3.85l0,1.9l2.4,0l4,4l4,0l1.1,1.5l0,4.6l-2.6,2.65l1.6,1.35l3.9,0l6.2,-3l-2.85,-2l0,-1.1l2,-2.4l2.5,0l3.9,-5.75l-2.6,-3.6l1.85,-4.75"/>
  </g>
  <g fill="#fcf5e3" stroke="#787878" stroke-width="0.6" stroke-linejoin="bevel" stroke-miterlimit="4" id="g25716" transform="translate(213.33334350585938,189.33334350585938) matrix(1.385313,0,0,1.385313,241.8025,306.4434) ">
   <path fill="#fcf5e3" stroke="#787878" stroke-width="0.6" stroke-linecap="round" stroke-linejoin="bevel" stroke-miterlimit="4" id="path25718" d="m12.3,-34l-5.65,6.9l-6.5,0l-1.5,-2.25l-5,0l0,3.1l-1.95,2.15l0,6.25l-4.9,8.1l0,3.9l-1.85,4.75l2.6,3.6l-3.9,5.75l-2.5,0l-2,2.4l0,1.1l5.75,4l0,3.9l1.25,1.85l2.4,0l0,4.4l-1,3.1l-1.5,1.65l0,3.25l3.65,0l0,-1.4l2.6,0l1.25,1.5l8.9,-6.5l2.6,-10.25l0,-5.5l1.5,-3l1.85,0l1.5,-3.6l1.15,0l2.35,2.6l3.9,0l0,1.5l1.85,0l1.75,-1.85l0,-2.5l-2.5,-1.9l0,-2l-1,-1l0,-5.75l1.4,-1l0,-1.85l-1.65,-2.5l-4.6,0l-1.9,-2.25l0,-2.5l1.4,-2l2.75,-2.25l0,-1.65l2.6,0l2.15,-1.25l0,-1.35l-1,0l0,-3.9l-1.5,-1.6l0,-2.9l-1.9,-1.25l-2.85,0"/>
  </g>
  <g fill="#fcf5e3" stroke="#787878" stroke-width="0.6" stroke-linejoin="bevel" stroke-miterlimit="4" id="g26604" transform="translate(213.33334350585938,189.33334350585938) matrix(1.385313,0,0,1.385313,315.6966,275.5898) ">
   <path fill="#fcf5e3" stroke="#787878" stroke-width="0.6" stroke-linecap="round" stroke-linejoin="bevel" stroke-miterlimit="4" id="path26606" d="m8.25,-16.2c1.23333,0.56667 2.45,1.11667 3.65,1.65l1.25,2.75l0,4.1l0.75,0l0,14.9l-2.75,3.6l-2.25,-0.25l-12.75,6.9l-2.65,-1.75l-4.25,0l-2.5,-2.5l0,-2.65l2.4,-4.6l0,-1.5l-2.9,-1l0,-6.15l1.5,-1.1l-1.6,-1l0,-3.15l11.35,-6.35l1.4,0l3,-3.15l2.1,0l4.25,1.25"/>
  </g>
  <g fill="#fcf5e3" stroke="#787878" stroke-width="0.6" stroke-linejoin="bevel" stroke-miterlimit="4" id="g27492" transform="translate(213.33334350585938,189.33334350585938) matrix(1.385313,0,0,1.385313,319.9064,239.4873) ">
   <path fill="#fcf5e3" stroke="#787878" stroke-width="0.6" stroke-linecap="round" stroke-linejoin="bevel" stroke-miterlimit="4" id="path27494" d="m22.161713,-156.156006l0,3.84375l-2,2.65625l0,3.34375l-1.75,2.40625l0,4.09375l4.25,0l4.625,-1.25l2.75,-3.84375l2,2l0.15625,8.0625l-3.125,5.75l-1.59375,-2.21875l-2.46875,0.0625l-0.15625,-1.5625l-2.5625,-2.34375l-1.9375,2.125l0,2.625l1.1875,-0.09375l0,1.34375l-1.90625,1.90625l-1.8125,-0.03125c-1.21526,-3.4646 -2.23423,-7.32391 -2.625,-12.4375l-2.34375,-2.625l-1.5,2.34375l-2.0625,0.03125l-3.65625,-4.53125l0.15625,4.96875l-1.65625,1.5625l2.5625,3.90625l-2.1875,7.25l-3.625,2.46875l-4.3125,0.03125l0.09375,2.09375l-3.09375,2.46875l0.03125,1.84375l2.78125,2.65625l0.03125,3.46875l5.21875,0.03125l1.5,-1.4375l4.6875,-0.09375l1.75,1.5625l5.375,-0.09375l0.34375,-0.25l-0.34375,0.28125l2.25,1.75l1.25,5.09375l0,4.75l2.09375,5.5l1.59375,0l0,0.15625l0.0625,-0.03125l0,10.875l-3.40625,6.75l0,6.25l2.40625,3.25l0,9.59375l-4.125,4.59375l1.5,6.25l-1.375,3l0,2.90625l1.125,1.25l0,1.09375l-3.75,8.75l0.375,5.0625l0,0l-1.09375,1.125l-2,0l-1.125,1.25l0,4.5l-0.03125,0l-3.15625,5.25l-1.34375,1.25l-2.90625,0l-6.875,-2.125l-3.71875,0l-3.40625,4.625l0,4.5l-4.75,0l-1.5,1.5l-3.25,0l-1.25,0.8125l0,5.0625l-1.25,0.25l0,4.5l1.25,0l1.40625,5.125l0,4.375l3.15625,1l11.34375,-6.375l1.40625,0l3,-3.125l2.09375,0l4.25,1.25l1.8125,0.78125l0.03125,0l1.84375,0.84375l1.25,2.75l0,2.0625l2.75,2.28125l4,0l3.09375,-2.34375l2.90625,0l3.75,2.59375l-0.03125,-3.34375l3.625,0l0,-6.25l2,-4.90625l0,-10.75l-1,-4.59375l-3.25,-9.90625l0,-5.5l-0.03125,-0.03125l2.125,-5.25l2.09375,-2.25l0,-3l3.15625,0l0,-2.09375l4.5,0l3.375,3.09375l0,2.5l1.75,-1.25l1.75,0l-3,-4.5l0,-3.59375l1.375,0l0,-1l-1.125,-1.15625l0,-2.59375l-1.75,0l0,-1.40625l2,-1.34375l0,-3.25l3.125,-3l0,-3.40625l1.125,-1.34375l2,0l2.875,-1.5l0,-3.25l2.625,-2.9375l-1.15625,-1.25l0,-1.65625l1.75,-1.25l-2.25,0l1.5,-4l1.25,0l0,-2l1.5,-1.75l0,-2.09375l-1.5,-1.90625l-2.34375,0l0,-2.75l1.5,0l0,-5.84375l-1.65625,-1.90625l0,-3.25l-1.75,0l-1.84375,-1.75l0,-2l1,0l0,-1.59375l-2,-1.40625l0,-3.25l-5.15625,-6.59375l-0.03125,0.0625l-2.3125,-2.65625l-2.25,0l-3.375,-7l-0.03125,-3.75l-1.125,-3.71875l-0.15625,-6l1.25,-1.5625l0,-7.65625l0.90625,0l0,-4.25l-1.375,0l-2.5,2.40625l-3.875,0l-1.375,-2.5l-3.75,-1.65625l-2.625,-2.59375z"/>
  </g>
  <g fill="#fcf5e3" stroke="#787878" stroke-width="0.6" stroke-linejoin="bevel" stroke-miterlimit="4" id="g28380" transform="translate(213.33334350585938,189.33334350585938) matrix(1.385313,0,0,1.385313,347.1113,234.1384) "/>
  <g fill="#fcf5e3" stroke="#787878" stroke-width="0.6" stroke-linejoin="bevel" stroke-miterlimit="4" id="g29268" transform="translate(213.33334350585938,189.33334350585938) matrix(1.385313,0,0,1.385313,323.655,189.6035) ">
   <path fill="#fcf5e3" stroke="#787878" stroke-width="0.6" stroke-linecap="round" stroke-linejoin="bevel" stroke-miterlimit="4" id="path29270" d="m0.611755,-77.303253l-1.40625,1.59375l-5.59375,0l2.09375,2.25l0,7.5l-3.96875,7.0625l-4.125,0l0,3.4375l1.59375,1.40625l1.90625,0l0,-1.5l3.75,0l1.59375,2.09375l1.15625,7.15625l0,3.59375l-1.90625,7.65625l-2.84375,2.5l0,6.5l-1.0625,4.34375l-1,5.15625l-6.59375,7.75l0,2.59375l5.84375,3.40625l0,3.84375l1.75,0l3,3.65625l-2.25,1.75l-2.5,0l-1.75,1.84375l0,5.90625l-1.75,4.09375l3.40625,4l3.6875,0l6.90625,2.15625l2.90625,0l1.34375,-1.25l3.15625,-5.25l0,-4.5l1.09375,-1.25l2,0l1.15625,-1.09375l-0.40625,-5.0625l3.75,-8.75l0,-1.09375l-1.09375,-1.25l0,-2.90625l1.34375,-3l-1.5,-6.25l4.15625,-4.59375l0,-9.65625l-2.40625,-3.25l0,-6.25l3.40625,-6.75l0,-11l-1.65625,0l-2.09375,-5.5l0,-4.75l-1.25,-5.09375l-2.25,-1.75l-5.5,0l-1.25,-1.5l-4.84375,0z"/>
  </g>
  <g fill="#fcf5e3" stroke="#787878" stroke-width="0.6" stroke-linejoin="bevel" stroke-miterlimit="4" id="g30156" transform="translate(213.33334350585938,189.33334350585938) matrix(1.385313,0,0,1.385313,366.8796,177.0941) "/>
  <g fill="#fcf5e3" stroke="#787878" stroke-width="0.6" stroke-linejoin="bevel" stroke-miterlimit="4" id="g31044" transform="translate(213.33334350585938,189.33334350585938) matrix(1.385313,0,0,1.385313,328.5039,124.4783) "/>
  <g fill="#fcf5e3" stroke="#787878" stroke-width="0.6" stroke-linejoin="bevel" stroke-miterlimit="4" id="g32826" transform="translate(213.33334350585938,189.33334350585938) matrix(1.385313,0,0,1.385313,370.8128,123.765) "/>
  <g fill="#fcf5e3" stroke="#787878" stroke-width="0.6" stroke-linejoin="bevel" stroke-miterlimit="4" id="g31932" transform="translate(213.33334350585938,189.33334350585938) matrix(1.385313,0,0,1.385313,346.5046,65.63449) ">
   <g fill="#fcf5e3" stroke="#787878" stroke-linejoin="bevel" id="g36333">
    <path fill="#fcf5e3" stroke="#787878" stroke-width="0.01" stroke-linejoin="bevel" id="path36339"/>
   </g>
  </g>
  <path transform="translate(213.33334350585938,189.33334350585938) " fill="#daf0fd" stroke="#27aaea" stroke-width="0.831188" stroke-linejoin="bevel" stroke-miterlimit="4" id="path3370" d="m352.30104,82.93137l-2.54114,0l-0.98194,-1.50366l1.01807,-1.50367l3.54809,1.15245l-1.04308,1.85488z"/>
  <g fill="#fcf5e3" stroke="#787878" stroke-width="0.6" stroke-linejoin="bevel" stroke-miterlimit="4" display="inline" id="g2338" transform="translate(213.33334350585938,189.33334350585938) matrix(1.385313,0,0,1.385313,394.9097,-56.43577) ">
   <path fill="#fcf5e3" stroke="#787878" stroke-width="0.6" stroke-linecap="round" stroke-linejoin="bevel" stroke-miterlimit="4" id="path2340" d="m-32.47709,30.68169c4.87173,-3.49568 13.11269,-19.02814 27.23051,-8.95114c0.54988,0.97412 1.68532,1.69728 4.35605,1.76247c3.33783,4.09234 6.0664,5.13837 8.81165,6.2678c4.03656,2.60512 8.98638,3.96088 13.02294,4.84761c4.33792,0.95294 4.64843,4.63934 8.68499,6.344c1.9409,-0.53227 -0.97619,-3.45863 1.46839,-4.02272c1.3549,-0.65509 0.66165,-6.9852 -1.17945,-8.68498c1.37809,-3.88039 6.36773,-13.06789 9.25578,-16.43486c3.09579,-3.60917 12.30518,-12.02893 17.46563,-12.03747c11.69518,-0.18991 7.86505,3.30517 11.79757,1.4851c-4.88387,-6.28753 8.60594,-7.49863 1.11287,-3.65494c1.22248,1.73117 3.52066,0.59529 5.02636,0.91038c3.40897,-3.69629 1.27112,-7.23424 5.2056,-5.29787c0.85212,-0.71125 -0.15148,-4.18601 8.11778,-2.61517c-2.6632,-4.36717 8.10967,-6.13977 6.24539,-8.93861c-5.66962,0.40212 -6.0492,5.14142 -9.56253,4.72078c-1.69833,-0.16213 -3.31002,1.55639 -5.59296,-9.6834c2.70251,0.23165 6.80292,-1.12267 -2.28235,-2.49483c-5.26809,-1.51555 -2.01215,-13.50227 0.63851,-15.50619c1.75412,-5.15625 2.83835,-9.81583 1.69626,-10.57465c-1.35506,1.17519 -5.75687,8.28767 -9.03527,11.09713c-3.22257,2.76161 -2.47768,5.63352 -4.94843,5.81436c-8.62631,1.41489 -12.85632,-1.30089 -14.24573,-5.83523c-4.50175,-0.28525 1.77909,0.69233 -1.33185,-0.16254c0.87878,1.51563 -2.89363,7.68994 -2.07437,-0.07549c-0.77771,-1.7989 -0.11738,0.14971 -3.74698,-0.49642c-1.54597,4.15075 -10.64981,-0.17884 -6.42688,-1.56697c-7.9128,-1.52227 -13.92993,-8.65194 -19.50653,-10.74822c-8.45107,-8.30302 -15.21745,-19.22157 -25.03215,-29.34693c-1.98585,-2.6446 -4.28483,-4.4542 -7.18184,-4.66902c0.57063,3.47601 -4.56138,1.21671 -7.60397,10.20602c4.74527,12.42818 7.56527,18.77228 6.03863,23.42066c0.94716,5.07739 -1.54275,8.59162 -2.40765,9.61437c-2.04198,2.41466 1.89048,8.50302 0.21276,12.32852c4.49495,-2.68769 2.62148,6.43206 -3.02761,4.65743c-6.8183,4.17669 -4.18921,4.35791 -4.77403,6.13731c0.58859,1.58862 0.66888,4.19383 2.07897,4.13943c-3.046,1.55476 2.1051,4.20131 0.7822,10.17042c-5.13066,6.53207 -4.60673,7.11457 -9.94481,5.04934c0.88737,-4.14434 -3.52514,-0.01093 -6.45455,-0.20446c-1.02035,-0.95024 -6.15669,-4.70274 -8.07183,-6.09695c-1.17002,0.14769 0.79685,2.49941 -3.6404,1.66005c-3.19435,5.82107 1.97206,5.80913 5.19655,12.17409c-1.98441,0.87988 -4.46931,1.27863 -5.78852,8.38723c-2.78188,0.24813 -1.55916,-3.35175 -4.17937,-1.83635c0.52061,5.719 -5.79625,4.04916 -8.82828,7.9521c3.19324,11.26827 -3.25932,9.16824 -0.60524,13.61958c1.46991,2.24842 3.4766,-0.51247 3.68724,4.15596c4.04541,1.53489 5.42154,3.71483 6.42814,6.51063c0.78157,2.73176 -0.61854,4.55074 -1.36005,6.48032c-3.01811,4.91486 -1.95829,9.24716 -0.80798,13.56653c5.67135,-1.76173 6.43346,2.28057 5.65302,0.32503c-0.77282,-7.39033 6.91597,0.99643 5.27741,-11.24344c2.74513,-0.0061 4.8963,-1.18349 4.61676,-5.42099l3.32925,2.9991c3.59318,-1.2255 5.91814,0.08545 8.0063,1.87c1.32359,-1.43182 2.61374,-2.78 4.52814,-5.68885l-5.98556,-3.33743c-1.2204,-3.09871 -4.77211,-4.86524 -8.04116,-6.79329l-3.74674,0.95049c-2.38284,-1.83276 -4.08474,-4.34647 -7.86134,-4.78549c0.36456,-2.42095 1.03838,-13.54571 7.26149,-11.63475c5.85359,-3.87517 5.18992,2.02554 7.7057,3.15708c1.42102,2.34232 2.64574,7.23654 4.33757,6.05833z"/>
   <g fill="#fcf5e3" stroke="#787878" stroke-linejoin="bevel" id="g2342">
    <path fill="#fcf5e3" stroke="#787878" stroke-width="0.01" stroke-linejoin="bevel" id="path2346"/>
   </g>
  </g>
  <g fill="#fcf5e3" stroke="#787878" stroke-width="0.6" stroke-linejoin="bevel" stroke-miterlimit="4" display="inline" id="g3239" transform="translate(213.33334350585938,189.33334350585938) matrix(1.385313,0,0,1.385313,564.2345,-45.72317) ">
   <path fill="#fcf5e3" stroke="#787878" stroke-width="0.6" stroke-linecap="round" stroke-linejoin="bevel" stroke-miterlimit="4" id="path3241" d="m504.738845,414.456282c1.00356,-3.18567 0.99863,-6.43938 4.07237,-8.14636c2.16954,0.1883 2.55348,1.56701 2.94057,2.94361c11.51876,1.21166 5.09036,-3.22378 8.67913,-1.84057c-2.19153,8.02769 -2.27242,-0.70552 -6.76431,7.63443c-6.4839,-0.72849 -5.22562,5.34964 -9.0231,5.07124c-1.94737,2.74193 -0.07889,6.28127 -3.05068,5.1456c0.0305,6.56881 -2.35965,3.74012 -3.97434,5.3914c-3.04741,0.12555 -0.68391,6.97578 -1.61293,8.50595c-0.48648,-1.82435 -1.58873,-2.72505 -3.89722,-1.81638l-1.18584,-3.8715c2.02018,-4.18094 3.99546,-3.81812 8.33629,-8.76568c-0.03151,-0.96635 0.78207,-4.17553 2.48428,-5.67488c0.44676,-2.21957 1.32139,-2.41897 2.99578,-4.57686z"/>
  </g>
  <path transform="translate(213.33334350585938,189.33334350585938) " fill="#fcf5e3" fill-rule="evenodd" stroke="#787878" stroke-width="0.831188" stroke-miterlimit="4" id="path5015" d="m1293.020069,549.443216c1.13165,-0.33419 2.74605,-3.27073 4.5849,-3.27073c1.96983,0.48612 1.46991,3.08305 3.76966,4.18524c-2.03863,-0.49092 -4.81324,2.79227 -5.15127,3.47055c-2.45891,1.78955 -4.3865,6.61214 -7.40572,0.58231c-0.33469,-1.33885 -0.43272,-1.11536 -0.43272,-2.53762c0,-1.6152 3.25649,-1.74042 4.63515,-2.42975z"/>
  <path transform="translate(213.33334350585938,189.33334350585938) " fill="#fcf5e3" fill-rule="evenodd" stroke="#787878" stroke-width="0.831188" stroke-miterlimit="4" id="path4249" d="m1092.238999,498.822156c-1.19937,2.11496 -11.97951,0.71165 -5.15002,-6.22517c4.5067,-0.52196 5.88955,2.77688 5.15002,6.22517z"/>
  <path transform="translate(213.33334350585938,189.33334350585938) " fill="#fcf5e3" fill-rule="evenodd" stroke="#787878" stroke-width="0.831188" stroke-miterlimit="4" id="path5136" d="m1081.689819,490.996606c-1.19937,2.11496 -4.70495,-8.61877 -0.08946,-8.43917c1.97642,2.79904 1.46156,7.52116 0.08946,8.43917z"/>
  <path transform="translate(213.33334350585938,189.33334350585938) " fill="#fcf5e3" fill-rule="evenodd" stroke="#787878" stroke-width="0.831188" stroke-miterlimit="4" id="path9953" d="m1272.320969,570.913056c1.13165,-0.33419 -2.6308,-4.06145 -0.79195,-4.06145c1.96983,0.48612 4.7909,-0.87051 4.71851,0.7061c-0.53047,0.65468 -0.41018,1.47172 0.22558,2.36356c-2.70107,2.15279 -3.21859,-0.75379 -3.92658,3.74516c-1.43207,0.49011 -2.99834,1.47382 -2.963,-0.00734c0.03853,-1.61474 1.35878,-2.0567 2.73744,-2.74603z"/>
  <path transform="translate(213.33334350585938,189.33334350585938) " fill="#fcf5e3" fill-rule="evenodd" stroke="#787878" stroke-width="0.831188" stroke-miterlimit="4" id="path10840" d="m1267.136249,573.999616c-2.14371,0.64825 -3.86812,-0.74018 -3.35835,-2.22134c3.88003,-0.99341 3.17457,1.57113 3.35835,2.22134z"/>
  <path transform="translate(213.33334350585938,189.33334350585938) " fill="#fcf5e3" fill-rule="evenodd" stroke="#787878" stroke-width="0.831188" stroke-miterlimit="4" id="path10842" d="m1281.281769,562.591926c-1.43207,0.2529 -3.39369,0.05054 -2.88392,-1.43062c1.58696,-1.94227 3.33271,0.22692 2.88392,1.43062z"/>
  <path transform="translate(213.33334350585938,189.33334350585938) " fill="#fcf5e3" fill-rule="evenodd" stroke="#787878" stroke-width="0.831188" stroke-miterlimit="4" id="path7264" d="m1026.570839,649.411546c1.96983,0.48612 3.48273,-2.61996 5.78248,-1.51777c1.08805,2.7792 -3.14899,0.33431 -1.68473,8.27897c-2.45891,1.78955 -1.47908,3.03379 -4.27465,1.36508c-1.4245,-3.61177 -0.18926,-5.55436 0.1769,-8.12628z"/>
  <path fill="none" stroke="#27aaea" stroke-width="0.831188" stroke-linejoin="bevel" stroke-miterlimit="4" id="path3185"/>
  <path transform="translate(222.6666717529297,56) " fill="none" stroke="#27aaea" stroke-width="0.831188" stroke-linecap="round" stroke-linejoin="bevel" stroke-miterlimit="4" id="path4125" d="m-99.49339,580.82821l3.46328,4.58887l0,6.58023l0.12988,-0.0433l3.93948,3.3767l0,2.20785l2.9005,1.73165l0,4.50226l-5.67113,3.46329l0,1.73163l6.58024,0l0,1.73165l-4.15594,3.3334l0,4.15594l-4.02606,4.50227l0,2.4243l-4.63215,3.11695l0,3.07367l-3.07366,2.51087l-3.59316,0l-1.81822,2.20784l0,11.6453l-1.73164,1.3853l0,3.67975l5.06505,4.50226l0,7.40277l-2.98708,5.41139l-2.07797,0l-2.07797,-2.29443l-2.20785,1.60177l1.86152,2.77063l2.07797,4.97846l10.25997,2.07797l2.20785,4.37239l3.80961,0l3.67974,-2.07797l0,-2.77062l-4.3724,-3.67974l0,-6.71011l-1.73164,0l0,-2.4243l4.71873,-6.10403l0,-4.24252l5.06505,0l3.93948,2.42428l0,1.90482l-1.86151,4.32911l-2.07797,0l-1.73164,-2.94379l-2.77063,0l0,3.98278l3.46328,0l0,4.67542l1.03899,1.73164l1.38531,0.34634l0,8.6582l-1.38531,0l0,2.25113l-5.19493,5.54125l2.07797,2.9438l1.51519,-2.25114l3.33341,0l8.65821,-5.54126l0,-2.4243l6.58023,0l0,-1.73162l-2.07797,-4.15596l-1.94809,0l0,-2.07798l2.29442,-3.46325l4.15594,0l0.12987,-0.0433l1.86152,3.24682l4.37239,1.73165l0.04329,-0.12988c1.38532,-5.07949 3.61914,-9.35087 6.66682,-12.81414l1.73165,-7.83567l-1.38532,0l0,-6.3638l11.77516,-27.57639l2.16456,0l0,-3.11694l-1.38532,0l0,-4.15595l2.20784,0l6.45037,-5.67111l0,-2.38101l3.76632,-2.25115l4.63214,-6.36378l-5.19492,0l0,-4.71871l3.3334,0l0,-1.73165l-4.37239,0l0,-1.86152l-3.46328,-2.4243l3.67974,-4.50226l-6.92657,0l0,-1.60178l-7.48935,0l-2.55417,-3.24681l1.73164,-2.29443l4.15594,0l4.8486,-4.2858l0,-7.96556l-4.15594,-5.19494l-2.64076,0l-2.90049,1.51519l-3.46329,4.84862l-2.07797,0l-0.12987,0.12987c-3.32475,-2.63212 -7.36525,-4.32913 -12.12149,-5.02177l-2.07797,-3.63645l-1.38531,-8.31187l1.38531,-4.15595l-6.40707,3.29014l-2.77063,-3.67976l-4.8486,0l-2.42429,2.9871l-5.54126,0l-2.77062,3.59313l0,2.9871l-3.11696,2.77062l0,2.4243l-1.73164,1.73164l-3.67973,0l-1.73165,-2.64076l-1.73164,0l-2.55417,2.77063l0,2.72733l-4.02606,1.81823l0,2.07797l-2.64076,0l0,-2.77063l-2.9005,-2.98709l-2.64075,0l-2.20784,4.37241l-3.11696,0l0,2.4243l3.59315,0l0,3.80961l-3.46328,0l-1.86152,-2.07798l-3.67973,0l-2.20785,-1.38532l-1.38531,-1.60175l0,2.64074l-3.33341,0l-4.97846,9.00454l3.24682,0l3.67975,-3.33341l0,-2.07797l3.46328,-2.07797l0,4.15594l-2.07798,2.42429l5.67113,3.80962l2.98708,0l0,3.8096l0.04329,0.08659l6.19063,2.20786l1.38531,1.51518l0,5.54124l1.86151,1.94812l0,2.55414l-2.9005,0l0,-2.20782l-5.19493,0l0,-7.61922l-1.94809,0l0,-2.29444l-3.46328,0l0,1.94811l-2.42431,1.86151l1.73165,2.07796l0,4.50228l1.73164,1.94809l2.64075,0l2.20785,4.15594l-3.80962,7.27289l2.77063,0l6.58024,-7.83567l6.23391,0l0,-1.38532l4.15594,0l0,3.80962l-3.80962,2.64075l0,1.51518l2.98709,1.9481l2.90049,0l0,-1.73163l2.42431,0l4.02606,-4.15597l0,-3.3334l-3.11696,-4.50225l-3.8096,0l-1.73164,1.38529l-2.29443,0l-1.38532,-1.73162l3.67975,-2.4243l1.51518,0l0,-2.20784l-2.55417,-4.8486l0,-3.46329l3.11696,-1.60177l1.86151,-2.55416l3.46328,3.07367"/>
  <path transform="translate(222.6666717529297,56) " fill="none" stroke="#27aaea" stroke-width="0.831188" stroke-linecap="round" stroke-linejoin="bevel" stroke-miterlimit="4" id="path4127" d="m-108.75386,625.35501l0,8.45043l-1.24678,1.03898l-3.74035,-1.52386l0,-3.11693l3.60182,-4.84862l1.38531,0m-17.59348,19.1866l-1.03898,1.38532l1.87017,2.77061l3.80961,0l-2.4243,-4.15593l-2.2165,0m-1.73164,6.2339l-3.80961,6.09539l-3.46328,0.69265l0,-2.07798l4.50227,-4.71006l2.77062,0"/>
  <path transform="translate(222.6666717529297,56) " fill="none" stroke="#27aaea" stroke-width="0.831188" stroke-linecap="round" stroke-linejoin="bevel" stroke-miterlimit="4" id="path4137" d="m-97.70669,613.46419l0,-3.46329l-2.77062,2.97842l-2.07797,0l-3.46328,2.70138l0,3.53255l1.93943,1.03896l4.29448,0l3.46328,-5.05639l-1.38532,-1.73163m-9.83572,9.21233l0.48486,-11.0825l-5.19492,0l-5.33346,6.92657l0,3.11695l3.25549,2.21649l-3.80961,0l0,3.32474l2.07797,2.90919l5.88758,-7.41144l2.63209,0"/>
  <path transform="translate(222.6666717529297,56) " fill="none" stroke="#27aaea" stroke-width="0.831188" stroke-linecap="round" stroke-linejoin="bevel" stroke-miterlimit="4" id="path4143" d="m-81.99446,709.73097l3.46328,-4.15592l0,-2.77063l3.32475,0l0,6.4417l-5.54125,10.38985l0,5.67978l-1.93944,1.59311l-3.25548,0.34633l0,-2.77062l-1.38532,-1.59311l0,-1.52384l5.33346,-5.40272l0,-6.23393m-13.29901,14.89213l-3.46328,-3.25548l-3.46328,0l-5.40272,2.90914l0,3.80963l2.77062,3.67108l6.09538,0.13852l3.46328,-3.8096l0,-3.46329"/>
  <path transform="translate(222.6666717529297,56) " fill="none" stroke="#27aaea" stroke-width="0.831188" stroke-linecap="round" stroke-linejoin="bevel" stroke-miterlimit="4" id="path4151" d="m-150.11793,571.70046l-3.11695,-0.34634l0,-2.2165l3.11695,0l0,2.56284m-3.67107,1.59312l0,2.2165l-2.4243,-2.2165l2.4243,0"/>
  <path transform="translate(222.6666717529297,56) " fill="none" stroke="#27aaea" stroke-width="0.831188" stroke-linecap="round" stroke-linejoin="bevel" stroke-miterlimit="4" id="path4153" d="m-155.86698,582.29812l0,3.80959l-2.77062,0l1.38531,2.77064l0,3.46328l1.38531,2.77063l1.93944,-3.32476l0,-4.64079l3.25549,0l0,-3.4633l-2.90916,2.07798l0,-3.67107l1.73164,0l0,-5.6798l-2.07797,3.80962l-1.93944,2.07798"/>
  <path transform="translate(222.6666717529297,56) " fill="none" stroke="#27aaea" stroke-width="0.831188" stroke-linecap="round" stroke-linejoin="bevel" stroke-miterlimit="4" id="path4155" d="m-162.58574,590.05586l0,2.63209l-2.97843,-1.59311l0,2.6321l2.28576,2.42431l2.2165,-2.97844l0,-3.11695l-1.52383,0m-9.6972,5.88758l-2.63209,-2.42431l0,4.71007l1.59311,2.07798l-2.4243,2.77062l3.94814,0l1.59312,2.07797l0,-3.46328l3.11695,0l0,1.73165l3.11695,0l0,-2.4243l-2.4243,-2.42431l0,-2.77061l-1.93943,-1.93945l-1.38531,2.07797l-2.56284,0"/>
  <path transform="translate(222.6666717529297,56) " fill="none" stroke="#27aaea" stroke-width="0.831188" stroke-linejoin="bevel" stroke-miterlimit="4" id="path4157"/>
  <path transform="translate(222.6666717529297,56) " fill="none" stroke="#27aaea" stroke-width="0.831188" stroke-linecap="round" stroke-linejoin="bevel" stroke-miterlimit="4" id="path4175" d="m-122.94293,541.9751l-3.11696,2.07797l0,4.15594l2.77063,2.63211l3.11695,-2.77064l0,-3.11693l-2.77062,-2.97845"/>
  <path transform="translate(222.6666717529297,56) " fill="none" stroke="#27aaea" stroke-width="0.831188" stroke-linecap="round" stroke-linejoin="bevel" stroke-miterlimit="4" id="path4179" d="m-133.44198,499.80022l-4.01741,1.93944l0,3.94814l0.55412,2.77062l-2.63209,0l0,5.54126l-0.6234,1.03898l4.77934,3.11696l0,-7.06511l2.4243,-2.77062l2.07796,0l0,-4.84859l1.73164,-1.93943l0,-1.73165l-4.29446,0"/>
  <path transform="translate(222.6666717529297,56) " fill="none" stroke="#27aaea" stroke-width="0.831188" stroke-linecap="round" stroke-linejoin="bevel" stroke-miterlimit="4" id="path4181" d="m-144.87082,522.31156l0,5.54124l2.56283,1.38532l5.74906,-9.4894l-6.44171,-2.63208l-1.87018,5.19492"/>
  <path transform="translate(222.6666717529297,56) " fill="none" stroke="#27aaea" stroke-width="0.831188" stroke-linecap="round" stroke-linejoin="bevel" stroke-miterlimit="4" id="path5985" d="m55.74826,524.67975l-2.29443,2.07796l0,2.07798l-6.92656,5.19492l-4.15593,-1.9048l1.60176,4.50225l0,5.02177l-2.38101,2.12126l-0.4762,0l-2.59746,2.33772l-11.42884,1.38532l-5.41138,0l-6.58023,-9.35088l-7.05644,4.84861l-1.9481,5.7577l-2.20784,0l0,6.71011l-22.16501,15.93112l-4.02606,0l-3.46329,4.37237l5.06506,0l1.55847,-1.94808l6.92657,-4.28582l2.07797,2.20784l0,5.88758l4.84859,0l-2.59746,1.60177l2.4243,2.42429l0,2.20786l-3.29012,0l1.9048,5.41136l-3.11695,2.42431l5.02176,7.27289l7.09973,0l0.04329,0.08659l0,2.55417l-2.77062,0l0,3.33341l4.37239,1.73164l7.05644,0l2.07797,3.11694l2.64075,0l0,-2.7706l-2.77062,-1.38532l0,-1.73165l2.55416,-1.94808l0,-7.2729l2.98709,0l5.67112,-6.58024l4.02607,-10.73619l13.16048,-8.44175l11.90503,1.73165l13.72325,14.0696c0.54056,-6.98211 2.28086,-11.82611 5.23822,-14.5458l0.30305,0c2.95534,-4.15594 7.57014,-8.15892 13.89641,-11.99162l3.93949,-1.73165l-3.46329,-2.07795l1.9481,-2.07798l0,-1.86152l-1.9481,-3.3334l-2.07796,0l0,-6.01747l2.64074,-2.77061l-1.94808,-2.42431l-5.3681,0l0,-0.12988l-7.27288,-3.2901l0,-2.59747l-1.38533,-1.08228l-3.46328,0l-0.69265,-3.24681l-2.98708,2.94377l-2.77064,0l-5.67112,-3.8096z"/>
  <path transform="translate(222.6666717529297,56) " fill="none" stroke="#27aaea" stroke-width="0.831188" stroke-linecap="round" stroke-linejoin="bevel" stroke-miterlimit="4" id="path5993" d="m67.71037,521.92409l-0.34633,-2.28577l2.4243,0l2.07797,-2.07797l4.15595,0l0,6.09538l-4.71008,0l-1.52384,-1.73164l-2.07797,0"/>
  <g fill="none" stroke="#27aaea" stroke-width="0.6" stroke-linejoin="bevel" stroke-miterlimit="4" display="inline" id="g6001" transform="translate(222.6666717529297,56) matrix(1.385313,0,0,1.385313,96.86605,526.7054) ">
   <path fill="none" stroke="#27aaea" stroke-width="0.6" stroke-linecap="round" stroke-linejoin="bevel" stroke-miterlimit="4" id="path6003" d="m3.85,-3.3l1.5,-3.1l-1.5,-0.9l-7.15,7.15l0,1.75l-2,1.35l0,2.15l1.4,2.25l3.1,0l1.25,-1.5l1.75,0l1,-1.5l-2,-1.65l0,-3.6l2.65,-2.4"/>
  </g>
  <g fill="none" stroke="#27aaea" stroke-width="0.6" stroke-linejoin="bevel" stroke-miterlimit="4" display="inline" id="g6005" transform="translate(222.6666717529297,56) matrix(1.385313,0,0,1.385313,28.58402,432.5576) ">
   <path fill="none" stroke="#27aaea" stroke-width="0.6" stroke-linecap="round" stroke-linejoin="bevel" stroke-miterlimit="4" id="path6007" d="m7.15,-0.95l-2.4,1.5l-1.6,-0.35l-2.4,-1.5l0,-2.65l2.5,-3l3.9,3.15l0,2.85"/>
   <path fill="none" stroke="#27aaea" stroke-width="0.6" stroke-linecap="round" stroke-linejoin="bevel" stroke-miterlimit="4" id="path6009" d="m-3,1.45l0,4.35l2.75,-2.6l-2.75,-1.75m-1.1,-0.25l-1,0.35l0,2.3l1,0.95l0,-3.6m-2,0.7l0,3.25l-1,-0.95l0,-2l1,-0.3m1,5.05l2.25,0l-1.5,-1.15l-0.75,0.75l0,0.4"/>
  </g>
  <path transform="translate(222.6666717529297,56) " fill="none" stroke="#27aaea" stroke-width="0.831188" stroke-linecap="round" stroke-linejoin="bevel" stroke-miterlimit="4" id="path6902" d="m105.3165,532.94833l11.5587,-6.96986l4.8486,-5.3248l0,-2.98707l-0.08657,0l0,-2.9005l-3.29014,-3.46328l-4.63213,0.30304l-7.96556,4.63214l0.04331,-0.30304l-13.29037,-9.09112l-3.24682,0l0,1.38532l-4.15593,0l0,-2.07799l-4.71872,0l-2.07798,2.07799l-3.76633,0l0.04331,0.08657l-7.48936,7.27289l-4.2858,0l-4.71874,5.67114l-4.63214,1.60176l-2.42428,0l0,-2.29443l-3.42,0l0,-2.77062l-3.46328,2.59747l-5.19492,0l0,-0.17317l-6.10404,4.8486l-2.77063,0l0,-2.55418l-1.51519,0l-1.38531,2.20785l-5.54125,0l0,2.07797l-2.81392,0l0,-0.0433l-6.92656,0l-5.88759,5.41138l-6.58023,0l-3.24683,-4.37239l0,-1.86152l-3.67974,-2.29441l-6.71011,5.06505l-1.73164,6.10403l-0.21646,8.65821l-4.84859,5.54125l-8.31188,-6.06075l-2.4243,2.07797l-2.25113,0l0,-6.06074l-5.54126,0l-4.3291,2.25113l-2.72734,-2.59747l-0.08658,0.08659l0,2.94379l-2.77062,0l0,-2.25112l-2.20785,0l-2.29442,2.94378l-5.3248,0l-3.80961,-3.98278l-3.54986,0l-3.93949,3.63645l0,-6.40707l-1.86151,-2.94379l2.9005,-2.77063l0,-3.29012l-1.86152,0l0,-5.36808l4.28582,0l0,-3.46328l2.77062,1.3853l4.71872,0l0,-1.55847l2.9005,0l0,2.59745l4.02607,0l12.94402,-12.81413l3.98277,0l0,-0.08659l3.29012,0l14.71895,-13.85314l7.61923,-5.32479l2.07797,0l1.55847,-1.60177l0,-1.51519l3.29012,-4.50226l4.15594,-2.07797l5.41138,-4.41569l0,-2.29442l-1.9048,-2.4243l5.19492,0l3.80961,-3.46328l6.06075,0l5.88758,-4.97847l2.4243,3.11695l6.40706,0l-2.77062,2.07798l-5.19493,0l-1.73163,1.51519l-5.88759,0l-2.59746,3.3334l3.11696,0l3.29012,-1.9481l3.46327,0l2.07798,1.38532l4.15594,0l-1.77493,-3.16025l2.29442,0l3.80962,2.94379l1.8615,0l2.29443,-3.98276l4.84859,0l4.28582,1.38531l10.38986,0l2.64075,-1.77496l3.46327,2.07799l1.73164,-1.38532l4.50228,0l5.54125,-4.15594l2.72733,0l0,-0.04328l4.28581,-1.9481l2.07798,1.38533l12.12148,0l2.90049,0l5.32481,-4.97849l3.11696,0l0,-1.25544l5.54124,0l1.60177,4.02607l-5.19493,6.36378l4.84861,4.50227l5.88758,-5.88758l2.07797,3.16023l1.73165,2.07797l3.2901,0l0,1.73165l4.84861,0l-1.90481,-2.90049l0,-1.38531l2.42429,0l1.73165,2.07796l2.25113,-2.29443l0,-3.24681l2.94379,0l0,1.51519l2.90049,0l0,-7.05646l2.81393,0l0,3.93949l3.11695,0l0,-6.71011l-4.67543,-3.4633l0,-8.18201l7.27289,-11.90502l4.4157,-2.03466l2.16454,-2.07798l0,-1.38532l2.90051,0l5.54124,-7.96555l5.75771,-6.92656l5.54126,-12.81415l0.04329,-0.04329l0,-3.11696l-2.29444,-2.77063l0,-4.84858l-1.25543,-0.69266l0,-4.71873l1.38532,0l0,-5.32479l6.23392,-3.80962l5.7577,0l6.58024,-4.84859l6.58023,0l2.07798,2.07796l0,2.42432l-4.02608,0l0,3.50656l-3.24682,3.54988l-3.20354,0l-4.06935,5.19491l-3.80963,-2.55417l-2.29441,5.67112l0,2.29443l4.02605,1.73164l3.59317,-2.77063l-0.0433,9.04783l-2.07797,1.38531l0,2.9005l5.71441,4.71873l5.36811,0l5.36808,-3.46328l0,-5.06505l7.96555,-3.11696l3.29011,0l0.04329,0.08657l10.34656,-4.50226l5.54126,-4.97845l6.58023,0l0,-2.07799l12.98733,-9.00453l7.09972,-12.81414l2.4243,-7.96556l6.75339,-6.45036l12.9873,-5.88757l4.84862,-8.78809l1.90481,-11.29896l2.94377,-7.27289l0,-0.12989l0,-3.59314l9.13441,-10.73619l1.38532,-7.14303l1.47189,-6.01744l0,-9.00454l3.93948,-3.46327l2.64075,-10.60631l0,-4.97846l-1.60176,-9.91365l-2.20783,-2.90052l-5.19492,0l0,2.07798l-2.64077,0l-2.20784,-1.94811l0,-4.762l5.71443,0l5.49794,-9.78377l0,-10.38985l-2.90049,-3.11695l0.12987,-0.08659l-0.04328,-4.80531l-3.85292,-3.67973l-0.04328,-2.55416l4.28581,-3.42l-0.12988,-2.9005l5.97417,-0.04329l5.02175,-3.42l3.03039,-10.04351l-3.54988,-5.41139l2.29444,-2.16454l-0.21646,-6.88328l5.06505,6.2772l2.85721,-0.0433l2.07798,-3.24681l3.24682,3.63644c0.54133,7.08393 1.95292,12.43027 3.63644,17.22983l2.51089,0.0433l2.64075,-2.64076l0,-1.86151l-1.64507,0.12987l0,-3.63646l2.68404,-2.94377l3.54987,3.24683l0.21646,2.16453l3.41999,-0.08656l2.20784,3.07365l4.3291,-7.96555l-0.21645,-11.16908l-2.77062,-2.77062l-3.80963,5.32479l-6.40707,1.73165l-5.88757,0l0,-5.67114l2.4243,-3.33341l0,-4.63214l2.77063,-3.67974l0,-5.32479l3.63644,3.59316l5.19492,2.29441l1.90482,3.46328l5.36808,0l3.46328,-3.33341l1.9048,0l0,5.88759l-1.25543,0l0,10.60631l-1.73165,2.16454l0.21646,8.31188l1.55849,5.15163l0.04328,5.19494l4.67544,9.69718l3.11694,0l3.20355,3.67974l0.04329,-0.08659l7.14302,9.13442l0,4.50225l2.77062,1.94811l0,2.20785l-1.3853,0l0,2.77061l2.55417,2.42431l2.42429,0l0,4.50226l2.29443,2.64076l0,8.09542l-2.07798,0l0,3.80962l3.24684,0l2.07795,2.64075l0,2.9005l-2.07795,2.42429l0,2.77063l-1.73165,0l-2.07798,5.54125l3.11697,0l-2.42431,1.73165l0,2.29442l1.60178,1.73165l-3.63644,4.06934l0,4.50228l-3.98279,2.07796l-2.77062,0l-1.55849,1.86152l0,4.71873l-4.32909,4.15594l0,4.50226l-2.77064,1.86151l0,1.94809l2.42431,0l0,3.59318l1.55847,1.60175l0,1.38533l-1.9048,0l0,4.97845l4.15592,6.23392l-2.42428,0l-2.42431,1.73163l0,-3.46328l-4.67542,-4.2858l-6.23391,0l0,2.9005l-4.37239,0l0,4.15594l-2.9005,3.11695l-2.94379,7.27289l0.04329,0.04329l0,7.61922l4.50227,13.72326l1.3853,6.3638l0,14.89209l-2.77063,6.7967l0,8.65821l-5.02175,0l0.06495,4.67544l0.02164,2.81391c-4.06358,5.40272 -6.68126,10.791 -7.83569,16.14755l0,7.61922l-1.8615,1.51519l0,7.96555l11.81845,20.47666l1.81822,0.90913l0,2.07794l-7.09973,0l-4.50228,2.98711l0,0.04328l-4.37239,3.93948l-3.59315,6.7967l0,4.63213l1.38531,0l0,4.3724l-1.03899,3.11695l-2.98706,2.77063l-0.17318,-0.0866l-5.93087,1.86153l-7.74908,5.19492l0,3.80962l-3.33343,3.11695l-3.46327,0l-3.11696,-5.54126l4.37239,0l-2.64074,-2.77061l1.38531,-2.77063l-1.73165,-1.3853l0,-3.46329l2.98708,-1.68836l0,-1.81822l-2.64074,0l0,-2.9871l4.71871,-3.59313l0,-1.60177l7.57593,-6.36378l0.77924,-0.60609l0,-1.51518l-5.19493,-4.50227l-3.11694,0l0,3.20353l-5.75771,0l0,3.80963l-4.97848,3.67973l0,4.63214l-0.17316,0.04329l0,4.84861l3.67974,0l0,1.60175l-3.33341,2.07798l0,4.84858l-1.51518,0l0,-3.11695l-2.07796,-4.8486l-2.9871,-2.29441l-6.36378,0l-9.22099,6.10404l0,3.11694l-1.94809,2.12128l0,5.67111l2.07795,2.07798l0,4.84859l-1.73162,0l-4.50228,9.56733l-3.98277,3.93947l-3.29013,0l-3.98276,-3.59315l0,-2.77063l1.55848,0l0,-14.89212l5.02175,0l0,-2.07797l0,-0.0433l-3.46326,-2.77061l-6.92658,0l-5.02176,3.93949l0,2.2944l-5.36809,3.9395l-4.63215,9.22099l0.0433,0l-2.29444,2.42429l0,5.19493l-9.00452,-3.33341l-14.54578,0l-3.24683,-2.55418l2.07797,-3.46328l-2.9871,0l-2.8572,5.58454l0,0.0433l-0.04329,0l-16.4506,5.41138l-4.50226,0l0,-1.9481l3.67973,-3.24682l4.97848,0l5.88758,-2.77064l0,-2.77061l-1.38531,-1.60178l-4.97848,0l0,1.38532l-6.58023,0l-4.50227,-3.24682l0,7.35947l-3.46329,-2.4243l0,-6.58023l-1.73164,0l0,-5.88758l1.60177,-1.38532l0,-1.73165l-5.06505,0l-0.08658,-0.08658l-2.9005,6.23392l-6.92658,9.69717l0,2.64077l1.51518,0l0,3.24683l9.35088,6.36378l3.98278,0l0,2.59747l2.55417,0l0,2.94379l-1.8615,2.25113l0,5.54124l-5.06505,0l0,-3.29011l-3.80963,0l-5.28152,1.9481l-11.16907,5.58454l0,1.81822l-2.9005,2.4243l2.07798,1.38532l0,4.15593l-5.88758,2.4243l-7.96555,16.62377l-6.45036,7.96555l-2.90052,0l0,-2.07798l-3.67974,0l-11.42882,-5.3248l0,-4.02607l-2.07798,0l0.21646,-1.51518l2.20784,0l0,-1.73165l-3.93949,-1.38531l-10.6063,-8.18199l0,-4.15596l1.73165,0l2.29442,-2.55418l-2.42429,-1.73161l0,-1.94811l3.59314,-4.50226l-2.07795,0l0,-2.77064l-2.55418,-2.12126zm82.42614,-145.71762l0,2.07797l2.42429,0l1.38531,-2.07797l-3.8096,0z"/>
  <path transform="translate(222.6666717529297,56) " fill="none" stroke="#27aaea" stroke-width="0.831188" stroke-linecap="round" stroke-linejoin="bevel" stroke-miterlimit="4" id="path6948" d="m248.30075,335.51524l0,4.01741l4.15596,0l1.38532,1.38531l-2.77063,5.6798l-4.15596,4.01739l-4.50226,2.90917l-3.67107,0l0,-2.07798l3.11694,-2.42431l1.93944,-3.8096l-1.73164,-2.4243l-2.28576,2.07798l0,-7.0651l7.13435,-8.86601l2.42431,-2.2165l2.07796,0l0,2.90916l-3.11696,5.88758"/>
  <g fill="none" stroke="#27aaea" stroke-width="0.6" stroke-linejoin="bevel" stroke-miterlimit="4" display="inline" id="g6108" transform="translate(222.6666717529297,56) matrix(1.385313,0,0,1.385313,385.7062,77.4) ">
   <path fill="none" stroke="#27aaea" stroke-width="0.6" stroke-linecap="round" stroke-linejoin="bevel" stroke-miterlimit="4" id="path6110" d="m-32.47709,30.68169c4.87173,-3.49568 13.11269,-19.02814 27.23051,-8.95114c0.54988,0.97412 1.68532,1.69728 4.35605,1.76247c3.33783,4.09234 6.0664,5.13837 8.81165,6.2678c4.03656,2.60512 8.98638,3.96088 13.02294,4.84761c4.33792,0.95294 4.64843,4.63934 8.68499,6.344c1.9409,-0.53227 -0.97619,-3.45863 1.46839,-4.02272c1.3549,-0.65509 0.66165,-6.9852 -1.17945,-8.68498c1.37809,-3.88039 6.36773,-13.06789 9.25578,-16.43486c3.09579,-3.60917 12.30518,-12.02893 17.46563,-12.03747c11.69518,-0.18991 7.86505,3.30517 11.79757,1.4851c-4.88387,-6.28753 8.60594,-7.49863 1.11287,-3.65494c1.22248,1.73117 3.52066,0.59529 5.02636,0.91038c3.40897,-3.69629 1.27112,-7.23424 5.2056,-5.29787c0.85212,-0.71125 -0.15148,-4.18601 8.11778,-2.61517c-2.6632,-4.36717 8.10967,-6.13977 6.24539,-8.93861c-5.66962,0.40212 -6.0492,5.14142 -9.56253,4.72078c-1.69833,-0.16213 -3.31002,1.55639 -5.59296,-9.6834c2.70251,0.23165 6.80292,-1.12267 -2.28235,-2.49483c-5.26809,-1.51555 -2.01215,-13.50227 0.63851,-15.50619c1.75412,-5.15625 2.83835,-9.81583 1.69626,-10.57465c-1.35506,1.17519 -5.75687,8.28767 -9.03527,11.09713c-3.22257,2.76161 -2.47768,5.63352 -4.94843,5.81436c-8.62631,1.41489 -12.85632,-1.30089 -14.24573,-5.83523c-4.50175,-0.28525 1.77909,0.69233 -1.33185,-0.16254c0.87878,1.51563 -2.89363,7.68994 -2.07437,-0.07549c-0.77771,-1.7989 -0.11738,0.14971 -3.74698,-0.49642c-1.54597,4.15075 -10.64981,-0.17884 -6.42688,-1.56697c-7.9128,-1.52227 -13.92993,-8.65194 -19.50653,-10.74822c-8.45107,-8.30302 -15.21745,-19.22157 -25.03215,-29.34693c-1.98585,-2.6446 -4.28483,-4.4542 -7.18184,-4.66902c0.57063,3.47601 -4.56138,1.21671 -7.60397,10.20602c4.74527,12.42818 7.56527,18.77228 6.03863,23.42066c0.94716,5.07739 -1.54275,8.59162 -2.40765,9.61437c-2.04198,2.41466 1.89048,8.50302 0.21276,12.32852c4.49495,-2.68769 2.62148,6.43206 -3.02761,4.65743c-6.8183,4.17669 -4.18921,4.35791 -4.77403,6.13731c0.58859,1.58862 0.66888,4.19383 2.07897,4.13943c-3.046,1.55476 2.1051,4.20131 0.7822,10.17042c-5.13066,6.53207 -4.60673,7.11457 -9.94481,5.04934c0.88737,-4.14434 -3.52514,-0.01093 -6.45455,-0.20446c-1.02035,-0.95024 -6.15669,-4.70274 -8.07183,-6.09695c-1.17002,0.14769 0.79685,2.49941 -3.6404,1.66005c-3.19435,5.82107 1.97206,5.80913 5.19655,12.17409c-1.98441,0.87988 -4.46931,1.27863 -5.78852,8.38723c-2.78188,0.24813 -1.55916,-3.35175 -4.17937,-1.83635c0.52061,5.719 -5.79625,4.04916 -8.82828,7.9521c3.19324,11.26827 -3.25932,9.16824 -0.60524,13.61958c1.46991,2.24842 3.4766,-0.51247 3.68724,4.15596c4.04541,1.53489 5.42154,3.71483 6.42814,6.51063c0.78157,2.73176 -0.61854,4.55074 -1.36005,6.48032c-3.01811,4.91486 -1.95829,9.24716 -0.80798,13.56653c5.67135,-1.76173 6.43346,2.28057 5.65302,0.32503c-0.77282,-7.39033 6.91597,0.99643 5.27741,-11.24344c2.74513,-0.0061 4.8963,-1.18349 4.61676,-5.42099l3.32925,2.9991c3.59318,-1.2255 5.91814,0.08545 8.0063,1.87c1.32359,-1.43182 2.61374,-2.78 4.52814,-5.68885l-5.98556,-3.33743c-1.2204,-3.09871 -4.77211,-4.86524 -8.04116,-6.79329l-3.74674,0.95049c-2.38284,-1.83276 -4.08474,-4.34647 -7.86134,-4.78549c0.36456,-2.42095 1.03838,-13.54571 7.26149,-11.63475c5.85359,-3.87517 5.18992,2.02554 7.7057,3.15708c1.42102,2.34232 2.64574,7.23654 4.33757,6.05833z"/>
   <g fill="none" stroke="#27aaea" stroke-linejoin="bevel" id="g6112">
    <path fill="none" stroke="#27aaea" stroke-width="0.01" stroke-linejoin="bevel" id="path6114"/>
   </g>
  </g>
  <g fill="none" stroke="#27aaea" stroke-width="0.6" stroke-linejoin="bevel" stroke-miterlimit="4" display="inline" id="g6116" transform="translate(222.6666717529297,56) matrix(1.385313,0,0,1.385313,555.031,88.1126) ">
   <path fill="none" stroke="#27aaea" stroke-width="0.6" stroke-linecap="round" stroke-linejoin="bevel" stroke-miterlimit="4" id="path6118" d="m106.179191,-22.871458c1.00356,-3.18567 0.99863,-6.43938 4.07237,-8.14636c2.16954,0.1883 2.55348,1.56701 2.94057,2.94361c11.51876,1.21166 5.09036,-3.22378 8.67913,-1.84057c-2.19153,8.02769 -2.27242,-0.70552 -6.76431,7.63443c-6.4839,-0.72849 -5.22562,5.34964 -9.0231,5.07124c-1.94737,2.74193 -0.07889,6.28127 -3.05068,5.1456c0.0305,6.56881 -2.35965,3.74012 -3.97434,5.3914c-3.04741,0.12555 -0.68391,6.97578 -1.61293,8.50595c-0.48648,-1.82435 -1.58873,-2.72505 -3.89722,-1.81638l-1.18584,-3.8715c2.02018,-4.18094 3.99546,-3.81812 8.33629,-8.76568c-0.03151,-0.96635 0.78207,-4.17553 2.48428,-5.67488c0.44676,-2.21957 1.32139,-2.41897 2.99578,-4.57686z"/>
  </g>
  <path transform="translate(222.6666717529297,56) " fill="none" fill-rule="evenodd" stroke="#27aaea" stroke-width="0.831188" stroke-miterlimit="4" id="path6120" d="m731.686717,77.4432c1.13165,-0.33419 2.74605,-3.27073 4.5849,-3.27073c1.96983,0.48612 1.46991,3.08305 3.76966,4.18524c-2.03863,-0.49092 -4.81324,2.79227 -5.15127,3.47055c-2.45891,1.78955 -4.3865,6.61214 -7.40572,0.58231c-0.33469,-1.33885 -0.43272,-1.11536 -0.43272,-2.53762c0,-1.6152 3.25649,-1.74042 4.63515,-2.42975z"/>
  <path transform="translate(222.6666717529297,56) " fill="none" fill-rule="evenodd" stroke="#27aaea" stroke-width="0.831188" stroke-miterlimit="4" id="path6122" d="m530.905647,26.82214c-1.19937,2.11496 -11.97951,0.71165 -5.15002,-6.22517c4.5067,-0.52196 5.88955,2.77688 5.15002,6.22517z"/>
  <path transform="translate(222.6666717529297,56) " fill="none" fill-rule="evenodd" stroke="#27aaea" stroke-width="0.831188" stroke-miterlimit="4" id="path6124" d="m520.356467,18.99659c-1.19937,2.11496 -4.70495,-8.61877 -0.08946,-8.43917c1.97642,2.79904 1.46156,7.52116 0.08946,8.43917z"/>
  <path transform="translate(222.6666717529297,56) " fill="none" fill-rule="evenodd" stroke="#27aaea" stroke-width="0.831188" stroke-miterlimit="4" id="path6126" d="m710.987617,98.91304c1.13165,-0.33419 -2.6308,-4.06145 -0.79195,-4.06145c1.96983,0.48612 4.7909,-0.87051 4.71851,0.7061c-0.53047,0.65468 -0.41018,1.47172 0.22558,2.36356c-2.70107,2.15279 -3.21859,-0.75379 -3.92658,3.74516c-1.43207,0.49011 -2.99834,1.47382 -2.963,-0.00734c0.03853,-1.61474 1.35878,-2.0567 2.73744,-2.74603z"/>
  <path transform="translate(222.6666717529297,56) " fill="none" fill-rule="evenodd" stroke="#27aaea" stroke-width="0.831188" stroke-miterlimit="4" id="path6128" d="m705.802897,101.9996c-2.14371,0.64825 -3.86812,-0.74018 -3.35835,-2.22134c3.88003,-0.99341 3.17457,1.57113 3.35835,2.22134z"/>
  <path transform="translate(222.6666717529297,56) " fill="none" fill-rule="evenodd" stroke="#27aaea" stroke-width="0.831188" stroke-miterlimit="4" id="path6130" d="m719.948417,90.59191c-1.43207,0.2529 -3.39369,0.05054 -2.88392,-1.43062c1.58696,-1.94227 3.33271,0.22692 2.88392,1.43062z"/>
  <path transform="translate(222.6666717529297,56) " fill="none" fill-rule="evenodd" stroke="#27aaea" stroke-width="0.831188" stroke-miterlimit="4" id="path6132" d="m465.237487,177.41153c1.96983,0.48612 3.48273,-2.61996 5.78248,-1.51777c1.08805,2.7792 -3.14899,0.33431 -1.68473,8.27897c-2.45891,1.78955 -1.47908,3.03379 -4.27465,1.36508c-1.4245,-3.61177 -0.18926,-5.55436 0.1769,-8.12628z"/>
 </g>
</svg>